<!-- icon666.com - MILLIONS OF FREE VECTOR ICONS --><svg viewBox="0 0 32 32" xmlns="http://www.w3.org/2000/svg"><g id="_x30_1"><path d="m29.6928711 24.2788086-4.4418945-4.2685547.1342773-.9433594c.3125-2.1860352-.4331055-4.4228516-2.0112305-6.0009766-.9464111-.9464111-2.1386108-1.5786743-3.413147-1.8721924.0131837-.0648192.0391236-.1249999.0391236-.1937255v-6c0-1.6542969-1.3457031-3-3-3h-12c-1.6542969 0-3 1.3457031-3 3v22c0 1.6542969 1.3457031 3 3 3h12c1.6542969 0 3-1.3457031 3-3 0-.5522461-.4477539-1-1-1s-1 .4477539-1 1c0 .5512695-.4487305 1-1 1h-12c-.5512695 0-1-.4487305-1-1v-22c0-.5512695.4487305-1 1-1h4c0 1.1030273.8969727 2 2 2s2-.8969727 2-2h4c.5512695 0 1 .4487305 1 1v6c0 .0062866.003479.0114746.0036011.0177002-.3337402.0178833-.6676636.0527954-.9996948.1195068-.3613281.0722656-.6538086.3378906-.7607422.690918-.1069336.3525391-.0107422.7358398.25.996582l2.8227539 2.8227539-.1630859 1.1420898c-.1738281 1.2172852-1.1459961 2.1894531-2.3637695 2.3632813l-1.1416016.1630859-2.8227539-2.8227539c-.2612305-.2607422-.6445313-.355957-.996582-.25-.3530273.1069336-.6186523.3994141-.690918.7607422-.4638672 2.3173828.2573242 4.6987305 1.9453125 6.3867188 1.5668945 1.5668945 3.7885742 2.3095703 5.9838867 1.9946289l.9438477-.1342773 4.2685547 4.4418945c.1865233.1938477.4423827.3041992.7114257.3071289h.0097656c.2651367 0 .5195313-.1054688.7070313-.2929688l4-4c.1899414-.1899414.2954101-.4482421.2929687-.7167968-.0029297-.269043-.1132812-.5249024-.3071289-.7114258zm-4.6787109 3.2929687-3.9165039-4.0761719c-.1899414-.1977539-.4511719-.3071289-.7211914-.3071289-.046875 0-.0942383.003418-.1411133.0102539l-1.4516602.2070313c-1.5708008.2202148-3.1757813-.3173828-4.3037109-1.4458008-.6474609-.6479492-1.0961914-1.4443359-1.3188477-2.3022461l1.4257813 1.4257813c.2226563.2226563.5361328.3286133.8486328.2827148l1.6362305-.2338867c2.0922852-.2983398 3.762207-1.9682617 4.0605469-4.0600586l.2338867-1.6367188c.0449219-.3115234-.0600586-.6259766-.2827148-.8486328l-1.4262695-1.4262695c.8647461.2236328 1.6606445.6772461 2.3193359 1.3359375 1.1186523 1.1186523 1.652832 2.7211914 1.4291992 4.2875977l-.2070313 1.4511719c-.0458984.3183594.0649414.6391602.296875.8623047l4.0761719 3.9165039z"></path><path d="m9.7070313 7.2929688c-.390625-.390625-1.0234375-.390625-1.4140625 0l-2 2c-.390625.390625-.390625 1.0234375 0 1.4140625l2 2c.1953125.1953125.4511718.2929687.7070312.2929687s.5117188-.0976563.7070313-.2929688c.390625-.390625.390625-1.0234375 0-1.4140625l-1.2929688-1.2929687 1.2929688-1.2929688c.390625-.3906249.390625-1.0234374 0-1.4140624z"></path><path d="m12.2929688 12.7070313c.1953125.1953125.4511718.2929687.7070312.2929687s.5117188-.0976563.7070313-.2929688l2-2c.390625-.390625.390625-1.0234375 0-1.4140625l-2-2c-.390625-.390625-1.0234375-.390625-1.4140625 0s-.390625 1.0234375 0 1.4140625l1.2929687 1.2929688-1.2929688 1.2929688c-.3906249.390625-.3906249 1.0234375.0000001 1.4140625z"></path></g></svg>