<!-- icon666.com - MILLIONS OF FREE VECTOR ICONS --><svg id="Layer_1" enable-background="new 0 0 512 512" viewBox="0 0 512 512" xmlns="http://www.w3.org/2000/svg"><path d="m497 199.92h-33.479c-4.808-17.858-11.887-34.931-21.143-50.991l23.688-23.688c5.858-5.858 5.858-15.355 0-21.213l-58.095-58.095c-2.813-2.813-6.628-4.394-10.606-4.394s-7.794 1.581-10.606 4.394l-23.689 23.688c-16.061-9.255-33.136-16.335-50.991-21.142v-33.479c0-8.284-6.716-15-15-15h-82.159c-8.284 0-15 6.716-15 15v33.479c-17.855 4.807-34.931 11.887-50.991 21.142l-23.688-23.688c-5.857-5.858-15.355-5.858-21.213 0l-58.095 58.095c-5.858 5.858-5.858 15.355 0 21.213l23.688 23.688c-9.255 16.06-16.335 33.135-21.142 50.991h-33.479c-8.284 0-15 6.716-15 15v82.159c0 8.284 6.716 15 15 15h33.479c4.807 17.855 11.887 34.931 21.142 50.991l-23.688 23.688c-5.858 5.858-5.858 15.355 0 21.213l58.095 58.095c5.857 5.858 15.355 5.858 21.213 0l23.688-23.688c16.061 9.256 33.133 16.335 50.991 21.143v33.479c0 8.284 6.716 15 15 15h82.159c8.284 0 15-6.716 15-15v-33.479c17.857-4.807 34.93-11.886 50.991-21.143l23.688 23.688c2.813 2.813 6.628 4.394 10.606 4.394s7.794-1.581 10.606-4.394l58.095-58.095c5.858-5.858 5.858-15.355 0-21.213l-23.688-23.688c9.256-16.06 16.335-33.133 21.143-50.991h33.48c8.284 0 15-6.716 15-15v-82.159c0-8.284-6.716-15-15-15zm-15 82.16h-30.313c-7.103 0-13.23 4.98-14.683 11.933-4.706 22.528-13.506 43.751-26.153 63.083-3.889 5.942-3.076 13.797 1.945 18.819l21.45 21.451-36.882 36.882-21.451-21.451c-5.021-5.021-12.874-5.833-18.819-1.946-19.332 12.649-40.556 21.448-63.083 26.153-6.952 1.452-11.933 7.581-11.933 14.683v30.313h-52.158v-30.313c0-7.102-4.981-13.231-11.933-14.683-22.526-4.705-43.75-13.504-63.083-26.153-5.94-3.888-13.797-3.077-18.819 1.946l-21.451 21.451-36.882-36.882 21.451-21.451c5.022-5.021 5.834-12.876 1.946-18.819-12.649-19.333-21.449-40.557-26.153-63.083-1.452-6.952-7.581-11.933-14.683-11.933h-30.313v-52.16h30.313c7.103 0 13.231-4.981 14.683-11.933 4.705-22.526 13.504-43.75 26.153-63.082 3.889-5.943 3.077-13.798-1.945-18.819l-21.451-21.451 36.882-36.882 21.451 21.451c5.022 5.022 12.876 5.833 18.819 1.946 19.333-12.649 40.557-21.449 63.083-26.153 6.952-1.452 11.933-7.581 11.933-14.683v-30.314h52.159v30.313c0 7.103 4.981 13.231 11.934 14.683 22.525 4.705 43.749 13.504 63.082 26.153 5.943 3.888 13.798 3.076 18.819-1.946l21.451-21.451 36.882 36.882-21.45 21.451c-5.021 5.021-5.834 12.876-1.945 18.819 12.647 19.33 21.447 40.554 26.153 63.083 1.452 6.952 7.58 11.933 14.683 11.933h30.311z"></path><path d="m256 110c-80.505 0-146 65.495-146 146s65.495 146 146 146 146-65.495 146-146-65.495-146-146-146zm-59.996 245.247c3.11-30.359 28.83-54.122 59.996-54.122 31.167 0 56.887 23.763 59.996 54.122-17.516 10.628-38.054 16.753-59.996 16.753s-42.48-6.125-59.996-16.753zm29.808-114.309c0-16.646 13.542-30.188 30.188-30.188s30.187 13.542 30.187 30.188-13.541 30.187-30.187 30.187-30.188-13.542-30.188-30.187zm116.166 92.85c-7.1-22.026-22.443-40.383-42.381-51.42 10.269-10.8 16.591-25.386 16.591-41.43 0-33.188-27-60.188-60.188-60.188s-60.188 27-60.188 60.188c0 16.044 6.322 30.63 16.591 41.43-19.938 11.037-35.281 29.394-42.381 51.42-18.647-20.591-30.022-47.886-30.022-77.788 0-63.962 52.038-116 116-116 63.963 0 116 52.038 116 116 0 29.902-11.375 57.197-30.022 77.788z"></path></svg>