<!-- icon666.com - MILLIONS OF FREE VECTOR ICONS --><svg id="Layer_1" viewBox="0 0 512 512" xmlns="http://www.w3.org/2000/svg" data-name="Layer 1"><path d="m512 269.987a119.469 119.469 0 0 1 -119.333 119.333h-39.667a12 12 0 0 1 0-24h39.667a95.333 95.333 0 1 0 0-190.666c-1.195 0-2.474.028-3.908.086a12.023 12.023 0 0 1 -11.529-7.3 142.119 142.119 0 0 0 -130.994-86.661c-70.461 0-131.014 52.528-140.853 122.183a12 12 0 0 1 -10.99 10.289 76.143 76.143 0 0 0 5.748 152.069h58.859a12 12 0 0 1 0 24h-58.859a100.15 100.15 0 0 1 -16.968-198.849 166.308 166.308 0 0 1 312.806-39.771 119.479 119.479 0 0 1 116.021 119.287zm-172.33 49.165-75.185-75.185a12 12 0 0 0 -16.97 0l-75.186 75.185a12 12 0 1 0 16.971 16.971l54.556-54.556.235 161.671a12 12 0 0 0 12 11.983h.018a12 12 0 0 0 11.982-12.021l-.235-161.924 54.844 54.847a12 12 0 0 0 16.97-16.971z" fill="#000000" style="fill: rgb(150, 150, 150);"></path></svg>