<!-- icon666.com - MILLIONS OF FREE VECTOR ICONS --><svg id="Layer_1" enable-background="new 0 0 512 512" viewBox="0 0 512 512" xmlns="http://www.w3.org/2000/svg"><g><path d="m447.733 258.49v-195.29c0-3.979-1.581-7.794-4.394-10.606l-48.2-48.2c-2.812-2.814-6.628-4.394-10.606-4.394-3.979 0-7.793 1.58-10.607 4.394l-48.2 48.2c-5.857 5.857-5.857 15.355 0 21.213l13.494 13.493-13.494 13.494c-5.857 5.858-5.857 15.355 0 21.213l13.494 13.493-13.493 13.493c-5.858 5.857-5.858 15.354 0 21.213l13.493 13.494-13.493 13.493c-2.813 2.812-4.394 6.628-4.394 10.606v50.69c-6.205 1.193-12.145 3.128-17.748 5.681-14.679-15.518-37.704-34.251-69.377-45.449 70.793-54.757 32.124-170.381-58.544-170.521-90.741.146-129.357 115.927-58.427 170.608-68.361 24.062-117.237 89.166-117.237 165.725v80.333c0 25.653 20.748 47.134 47.133 47.134h257.067c6.885 0 13.585-1.489 19.741-4.339 8.991 2.818 18.55 4.339 28.459 4.339h64.267c52.566 0 95.333-42.767 95.333-95.333v-80.334c0-38.58-27.707-70.812-64.267-77.843zm-337.4-114.957c0-36.024 29.308-65.333 65.333-65.333 86.555 3.285 86.531 127.394-.001 130.666-36.023 0-65.332-29.308-65.332-65.333zm-63.2 338.467c-9.582 0-17.133-7.813-17.133-17.134v-80.333c-.943-128.767 158.974-194.489 248.869-102.807-13.863 14.583-21.802 34.053-21.802 54.606v80.334c0 24.923 9.507 48.048 25.787 65.333h-235.721zm434.867-65.333c0 36.024-29.309 65.333-65.333 65.333h-64.267c-36.025 0-65.333-29.309-65.333-65.333v-80.334c0-27.166 22.101-49.267 49.267-49.267 8.284 0 15-6.716 15-15v-58.054l19.706-19.706c5.858-5.857 5.858-15.354 0-21.213l-13.494-13.493 13.493-13.493c5.858-5.857 5.858-15.355 0-21.213l-13.493-13.494 13.494-13.494c5.857-5.858 5.857-15.355 0-21.213l-13.494-13.493 26.987-26.987 33.2 33.2v202.653c0 8.284 6.716 15 15 15 27.166 0 49.267 22.101 49.267 49.267z"></path><path d="m384.533 353.467c-25.989 0-47.133 21.144-47.133 47.133 2.37 62.443 91.906 62.426 94.267-.001 0-25.989-21.145-47.132-47.134-47.132zm0 64.266c-9.447 0-17.133-7.687-17.133-17.134.861-22.698 33.409-22.692 34.267 0 0 9.448-7.687 17.134-17.134 17.134z"></path></g></svg>