<!-- icon666.com - MILLIONS OF FREE VECTOR ICONS --><svg id="Capa_1" enable-background="new 0 0 555.82 555.82" viewBox="0 0 555.82 555.82" xmlns="http://www.w3.org/2000/svg"><g><g><g id="_x30_7_test_3_"><g><path d="m441.387 49.043h-70.404c-11.008-28.663-38.799-49.043-71.276-49.043h-43.594c-32.477 0-60.268 20.38-71.276 49.043h-70.404c-17.982 0-32.695 14.713-32.695 32.695v441.387c0 17.982 14.713 32.695 32.695 32.695h326.953c17.982 0 32.695-14.713 32.695-32.695v-441.387c.001-17.982-14.712-32.695-32.694-32.695zm-238.229 14.822c5.558-24.193 27.235-42.068 52.955-42.068h43.594c25.72 0 47.408 17.982 53.075 42.068.865 3.164 1.526 6.975 1.526 12.317v16.348h-152.687v-16.241c0-5.449.959-10.15 1.537-12.424zm249.127 459.26c0 5.994-4.904 10.898-10.898 10.898h-326.953c-5.994 0-10.898-4.904-10.898-10.898v-441.387c0-5.994 4.904-10.898 10.898-10.898h65.5v5.449 27.246c0 5.994 4.904 10.898 10.898 10.898h174.375c5.994 0 10.898-4.904 10.898-10.898v-32.695h65.282c5.994 0 10.898 4.904 10.898 10.898z"></path><path d="m251.972 171.323c-4.686-3.814-11.552-3.052-15.367 1.744l-35.965 45.011-24.086-24.086c-4.25-4.25-11.116-4.25-15.367 0-4.25 4.25-4.25 11.116 0 15.367l32.695 32.695c2.071 2.071 4.795 3.161 7.738 3.161h.654c3.052-.218 5.994-1.635 7.956-4.032l43.594-54.492c3.706-4.796 2.943-11.662-1.852-15.368z"></path><path d="m386.895 201.621h-87.188c-5.994 0-10.898 4.904-10.898 10.898s4.904 10.898 10.898 10.898h87.188c5.994 0 10.898-4.904 10.898-10.898s-4.904-10.898-10.898-10.898z"></path><path d="m251.972 269.409c-4.686-3.814-11.552-3.052-15.367 1.744l-35.965 45.011-24.086-24.086c-4.25-4.25-11.116-4.25-15.367 0-4.25 4.25-4.25 11.116 0 15.367l32.695 32.695c2.071 2.071 4.795 3.161 7.738 3.161h.654c3.052-.218 5.994-1.635 7.956-4.032l43.594-54.492c3.706-4.796 2.943-11.662-1.852-15.368z"></path><path d="m386.895 299.707h-87.188c-5.994 0-10.898 4.904-10.898 10.898s4.904 10.898 10.898 10.898h87.188c5.994 0 10.898-4.904 10.898-10.898s-4.904-10.898-10.898-10.898z"></path><path d="m251.972 367.495c-4.686-3.814-11.552-3.052-15.367 1.744l-35.965 45.011-24.086-24.086c-4.25-4.25-11.116-4.25-15.367 0-4.25 4.25-4.25 11.116 0 15.367l32.695 32.695c2.071 2.071 4.795 3.161 7.738 3.161h.654c3.052-.218 5.994-1.635 7.956-4.032l43.594-54.492c3.706-4.796 2.943-11.662-1.852-15.368z"></path><path d="m386.895 397.793h-87.188c-5.994 0-10.898 4.904-10.898 10.898s4.904 10.898 10.898 10.898h87.188c5.994 0 10.898-4.904 10.898-10.898s-4.904-10.898-10.898-10.898z"></path></g></g></g></g></svg>