<!-- icon666.com - MILLIONS OF FREE VECTOR ICONS --><svg id="Layer_2" enable-background="new 0 0 32 32" viewBox="0 0 32 32" xmlns="http://www.w3.org/2000/svg"><g><path d="m14.12358 13.11946c3.34126 0 6.05973-2.71799 6.05973-6.05973s-2.71847-6.05973-6.05973-6.05973-6.05973 2.71799-6.05973 6.05973 2.71847 6.05973 6.05973 6.05973zm0-9.21623c1.74033 0 3.1565 1.4157 3.1565 3.1565s-1.41617 3.1565-3.1565 3.1565-3.1565-1.4157-3.1565-3.1565 1.41617-3.1565 3.1565-3.1565z"></path><path d="m16.37235 15.24584h-4.49754c-5.76062 0-10.44717 4.68655-10.44717 10.44764v.48198c0 2.66035 2.16466 4.82454 4.82501 4.82454h15.74187c2.66035 0 4.82501-2.16419 4.82501-4.82453v-.48198c-.00001-5.76109-4.68656-10.44765-10.44718-10.44765zm7.54395 10.92963c0 1.05941-.8619 1.92131-1.92178 1.92131h-15.74187c-1.05989 0-1.92178-.8619-1.92178-1.92131v-.48198c0-4.16016 3.38426-7.54442 7.54395-7.54442h4.49754c4.15968 0 7.54395 3.38426 7.54395 7.54442v.48198z"></path><path d="m29.12075 10.21623h-1.81452v-1.81452c0-.80141-.64973-1.45161-1.45161-1.45161s-1.45161.6502-1.45161 1.45161v1.81452h-1.81452c-.80188 0-1.45161.6502-1.45161 1.45161s.64973 1.45161 1.45161 1.45161h1.81452v1.81452c0 .80141.64973 1.45161 1.45161 1.45161s1.45161-.6502 1.45161-1.45161v-1.81452h1.81452c.80188 0 1.45161-.6502 1.45161-1.45161s-.64973-1.45161-1.45161-1.45161z"></path></g></svg>