<?xml version="1.0" encoding="UTF-8"?>
<!DOCTYPE svg PUBLIC "-//W3C//DTD SVG 1.1//EN" "http://www.w3.org/Graphics/SVG/1.1/DTD/svg11.dtd">
<svg xmlns="http://www.w3.org/2000/svg" version="1.1" width="421px" height="442px" style="shape-rendering:geometricPrecision; text-rendering:geometricPrecision; image-rendering:optimizeQuality; fill-rule:evenodd; clip-rule:evenodd" xmlns:xlink="http://www.w3.org/1999/xlink">
<g><path style="opacity:0.004" fill="#fefffe" d="M 327.5,-0.5 C 327.833,-0.5 328.167,-0.5 328.5,-0.5C 328.315,0.170143 327.981,0.170143 327.5,-0.5 Z"/></g>
<g><path style="opacity:0.004" fill="#000000" d="M 315.5,0.5 C 316.833,1.16667 316.833,1.16667 315.5,0.5 Z"/></g>
<g><path style="opacity:0.004" fill="#fefffe" d="M 329.5,0.5 C 330.833,1.16667 330.833,1.16667 329.5,0.5 Z"/></g>
<g><path style="opacity:0.004" fill="#b8b8b8" d="M 332.5,1.5 C 333.251,0.426544 334.251,0.259877 335.5,1C 334.552,1.48278 333.552,1.64945 332.5,1.5 Z"/></g>
<g><path style="opacity:0.004" fill="#e4e4e4" d="M 340.5,2.5 C 340.167,3.16667 339.833,3.83333 339.5,4.5C 339.214,6.93268 338.548,6.93268 337.5,4.5C 338.757,3.3774 338.424,2.71073 336.5,2.5C 336.369,1.76109 336.536,1.09442 337,0.5C 338.596,-0.0484704 339.763,0.618196 340.5,2.5 Z"/></g>
<g><path style="opacity:0.006" fill="#2e2e2e" d="M 320.5,-0.5 C 321.167,-0.5 321.833,-0.5 322.5,-0.5C 323.695,2.72936 325.362,3.06269 327.5,0.5C 327.833,1.16667 328.167,1.83333 328.5,2.5C 326.014,3.46158 326.014,4.29492 328.5,5C 326.381,5.3418 326.047,6.17513 327.5,7.5C 324.946,6.39438 322.279,5.56104 319.5,5C 313.64,4.81567 307.974,4.649 302.5,4.5C 303.189,3.22641 304.023,3.22641 305,4.5C 305.991,3.0611 307.324,2.0611 309,1.5C 311.118,1.73573 313.284,1.73573 315.5,1.5C 316.566,2.69211 317.399,2.35878 318,0.5C 318.604,2.6857 319.77,2.85237 321.5,1C 320.944,0.617425 320.611,0.117425 320.5,-0.5 Z"/></g>
<g><path style="opacity:0.134" fill="#0b0b0b" d="M 332.5,1.5 C 333.568,2.43448 334.901,2.76781 336.5,2.5C 336.5,2.83333 336.5,3.16667 336.5,3.5C 332.971,4.29732 332.805,5.29732 336,6.5C 336.278,5.5842 336.778,4.91753 337.5,4.5C 338.548,6.93268 339.214,6.93268 339.5,4.5C 341.099,4.23219 342.432,4.56552 343.5,5.5C 342.833,5.5 342.5,5.83333 342.5,6.5C 342.217,7.21607 341.884,8.0494 341.5,9C 342.998,9.5847 343.998,9.0847 344.5,7.5C 345.5,8.83333 346.5,8.83333 347.5,7.5C 349.139,8.4725 350.473,9.80584 351.5,11.5C 351.062,11.4346 350.728,11.6012 350.5,12C 351.946,13.298 353.279,13.4646 354.5,12.5C 356.082,14.6303 358.082,16.2969 360.5,17.5C 360.5,18.1667 360.833,18.5 361.5,18.5C 361.5,19.8333 362.167,20.5 363.5,20.5C 363.5,21.1667 363.833,21.5 364.5,21.5C 365.557,22.206 365.224,22.5393 363.5,22.5C 362.226,23.1894 362.226,24.0228 363.5,25C 362.5,25.3333 361.5,25.6667 360.5,26C 362.345,27.128 364.345,27.628 366.5,27.5C 367.268,26.7375 367.768,25.7375 368,24.5C 368.64,26.5433 368.14,28.2099 366.5,29.5C 365.986,30.6246 365.653,31.7913 365.5,33C 366.352,34.7284 367.352,34.895 368.5,33.5C 368.833,34.5 369.5,35.1667 370.5,35.5C 371.166,37.5062 371.166,39.3395 370.5,41C 372.168,43.6301 373.168,46.1301 373.5,48.5C 372.415,51.0862 373.081,53.2528 375.5,55C 374.692,55.3076 374.025,55.8076 373.5,56.5C 373.98,58.9486 374.98,61.1153 376.5,63C 375.944,63.3826 375.611,63.8826 375.5,64.5C 374.624,64.3691 373.957,64.7025 373.5,65.5C 373.97,66.463 374.637,66.463 375.5,65.5C 375.758,67.1902 375.758,69.1902 375.5,71.5C 375.5,72.1667 375.833,72.5 376.5,72.5C 377.363,73.9403 377.363,75.2736 376.5,76.5C 377.025,77.1924 377.692,77.6924 378.5,78C 377.949,79.3985 377.616,80.7318 377.5,82C 378.574,82.7387 379.241,83.7387 379.5,85C 378.851,86.6895 378.851,88.5229 379.5,90.5C 379.167,90.5 378.833,90.5 378.5,90.5C 377.243,91.6226 377.576,92.2893 379.5,92.5C 379.918,93.2216 380.584,93.7216 381.5,94C 380.833,94.3333 380.167,94.6667 379.5,95C 380.244,96.8148 380.911,98.6481 381.5,100.5C 380.761,100.369 380.094,100.536 379.5,101C 380.641,101.741 380.641,102.575 379.5,103.5C 380.243,104.182 380.909,104.849 381.5,105.5C 381.232,107.099 381.566,108.432 382.5,109.5C 383.432,110.687 383.432,112.02 382.5,113.5C 382.919,114.672 383.585,115.672 384.5,116.5C 384.376,117.107 384.043,117.44 383.5,117.5C 383.5,116.833 383.167,116.5 382.5,116.5C 381.07,118.455 381.403,120.121 383.5,121.5C 383.953,122.458 384.619,123.292 385.5,124C 384.833,124.333 384.167,124.667 383.5,125C 384.833,125.667 385.833,126.667 386.5,128C 385.806,129.702 385.806,131.536 386.5,133.5C 386.5,134.167 386.5,134.833 386.5,135.5C 385.167,135.833 385.167,136.167 386.5,136.5C 388.446,138.51 388.446,140.176 386.5,141.5C 386.624,142.107 386.957,142.44 387.5,142.5C 387.389,143.117 387.056,143.617 386.5,144C 388.939,144.533 389.605,145.7 388.5,147.5C 388.205,148.897 387.871,150.397 387.5,152C 388.449,152.617 389.282,152.451 390,151.5C 389.386,153.54 389.552,155.54 390.5,157.5C 389.167,157.833 389.167,158.167 390.5,158.5C 390.5,158.833 390.5,159.167 390.5,159.5C 389.167,160.167 389.167,160.833 390.5,161.5C 390.36,163.124 391.027,164.29 392.5,165C 391.572,165.388 390.905,166.055 390.5,167C 391.148,168.44 391.481,169.94 391.5,171.5C 389.219,172.634 389.219,173.968 391.5,175.5C 393.673,176.166 394.007,177.333 392.5,179C 393.016,181.669 393.683,184.169 394.5,186.5C 394.264,188.049 394.264,189.549 394.5,191C 396.891,191.691 396.891,192.691 394.5,194C 395.442,197.467 396.775,201.134 398.5,205C 397.428,209.303 397.761,213.136 399.5,216.5C 398.919,219.364 399.585,222.197 401.5,225C 399.009,225.626 399.009,226.459 401.5,227.5C 400.645,230.738 400.645,234.071 401.5,237.5C 398.742,238.967 399.075,239.633 402.5,239.5C 402.227,241.451 402.893,242.951 404.5,244C 402.381,244.342 402.047,245.175 403.5,246.5C 402.167,246.833 402.167,247.167 403.5,247.5C 405.321,256.008 406.654,264.008 407.5,271.5C 407.36,273.124 408.027,274.29 409.5,275C 408.633,278.443 408.299,281.776 408.5,285C 409.167,285.333 409.833,285.667 410.5,286C 410.634,287.545 410.3,289.212 409.5,291C 409.905,291.945 410.572,292.612 411.5,293C 410.226,293.977 410.226,294.811 411.5,295.5C 411.629,297.216 411.962,298.883 412.5,300.5C 411.833,300.5 411.5,300.833 411.5,301.5C 410.766,302.878 410.099,304.378 409.5,306C 411.133,306.48 412.466,307.313 413.5,308.5C 413.167,309.167 412.833,309.833 412.5,310.5C 412.433,311.959 412.766,313.292 413.5,314.5C 413.822,318.745 414.822,323.078 416.5,327.5C 415.167,327.833 415.167,328.167 416.5,328.5C 417.171,329.847 417.171,331.014 416.5,332C 418.891,332.691 418.891,333.691 416.5,335C 418.619,335.342 418.953,336.175 417.5,337.5C 416.637,336.537 415.97,336.537 415.5,337.5C 415.942,338.739 416.609,339.739 417.5,340.5C 417.297,342.39 417.963,343.89 419.5,345C 418.833,346.333 418.167,347.667 417.5,349C 418.496,352.308 418.83,355.808 418.5,359.5C 417.167,359.833 417.167,360.167 418.5,360.5C 418.5,361.167 418.5,361.833 418.5,362.5C 417.5,362.833 416.833,363.5 416.5,364.5C 413.833,364.833 413.833,365.167 416.5,365.5C 415.833,366.167 415.167,366.833 414.5,367.5C 413.733,368.172 413.066,369.005 412.5,370C 411.952,371.596 412.618,372.763 414.5,373.5C 412.545,373.799 411.211,374.799 410.5,376.5C 409.038,377.458 407.705,378.624 406.5,380C 407.167,380.333 407.833,380.667 408.5,381C 407.263,381.232 406.263,381.732 405.5,382.5C 405.167,382.5 404.833,382.5 404.5,382.5C 403.377,381.243 402.711,381.576 402.5,383.5C 400.701,386.63 398.034,388.63 394.5,389.5C 394.565,389.062 394.399,388.728 394,388.5C 390.59,389.874 390.757,390.541 394.5,390.5C 393.402,391.397 393.402,392.23 394.5,393C 393.906,393.464 393.239,393.631 392.5,393.5C 390.17,393.163 387.837,393.163 385.5,393.5C 384.186,394.313 383.019,395.313 382,396.5C 380.51,395.272 379.01,395.272 377.5,396.5C 377.167,396.5 376.833,396.5 376.5,396.5C 375.153,397.171 373.986,397.171 373,396.5C 372.583,397.756 371.75,398.423 370.5,398.5C 370.158,397.662 369.492,397.328 368.5,397.5C 367.075,395.969 366.409,396.302 366.5,398.5C 363.951,398.387 361.618,399.054 359.5,400.5C 358.583,399.873 357.583,399.539 356.5,399.5C 355.075,397.969 354.409,398.302 354.5,400.5C 349.842,400.397 345.508,401.064 341.5,402.5C 340.06,403.363 338.726,403.363 337.5,402.5C 336.483,405.028 335.316,405.028 334,402.5C 333.667,403.167 333.333,403.833 333,404.5C 330.87,404.587 328.703,404.587 326.5,404.5C 324.941,405.074 323.441,405.74 322,406.5C 318.817,406.317 315.65,406.317 312.5,406.5C 310.807,403.038 309.807,403.038 309.5,406.5C 308.833,406.5 308.5,406.833 308.5,407.5C 307.833,407.833 307.167,408.167 306.5,408.5C 306.167,407.167 305.833,407.167 305.5,408.5C 300.205,409.274 295.538,409.941 291.5,410.5C 289.741,409.739 288.074,410.072 286.5,411.5C 285.213,412.768 284.213,412.435 283.5,410.5C 282.808,411.025 282.308,411.692 282,412.5C 279.701,411.42 277.534,411.754 275.5,413.5C 275.591,411.302 274.925,410.969 273.5,412.5C 272.778,412.918 272.278,413.584 272,414.5C 271.692,413.692 271.192,413.025 270.5,412.5C 268.47,413.172 266.47,413.838 264.5,414.5C 264.5,413.833 264.167,413.5 263.5,413.5C 262.833,413.5 262.5,413.833 262.5,414.5C 260.901,414.232 259.568,414.566 258.5,415.5C 257.778,415.082 257.278,414.416 257,413.5C 256.536,414.094 256.369,414.761 256.5,415.5C 255.5,415.5 254.5,415.5 253.5,415.5C 254.85,414.176 254.683,413.176 253,412.5C 251.37,413.713 249.536,414.546 247.5,415C 248.056,415.383 248.389,415.883 248.5,416.5C 247.279,417.028 246.113,417.695 245,418.5C 243.612,417.446 242.112,417.28 240.5,418C 241.696,418.654 241.696,419.154 240.5,419.5C 239.167,419.167 237.833,418.833 236.5,418.5C 235.483,421.028 234.316,421.028 233,418.5C 232,419.167 231,419.833 230,420.5C 228.708,419.209 227.542,419.209 226.5,420.5C 225.883,420.389 225.383,420.056 225,419.5C 224.583,420.756 223.75,421.423 222.5,421.5C 222.289,419.576 221.623,419.243 220.5,420.5C 218.97,421.067 217.47,421.733 216,422.5C 214.984,421.366 214.317,421.699 214,423.5C 210.458,424.582 206.958,424.582 203.5,423.5C 202.808,424.025 202.308,424.692 202,425.5C 200.609,423.285 198.943,423.285 197,425.5C 195.594,424.332 194.428,424.665 193.5,426.5C 191.066,425.57 189.066,425.57 187.5,426.5C 186.452,424.067 185.786,424.067 185.5,426.5C 183.348,427.281 181.348,427.614 179.5,427.5C 178.038,426.529 176.705,426.862 175.5,428.5C 175.44,427.957 175.107,427.624 174.5,427.5C 172.971,429.316 171.304,429.983 169.5,429.5C 167.423,428.477 165.423,428.81 163.5,430.5C 163.158,429.662 162.492,429.328 161.5,429.5C 161.565,429.062 161.399,428.728 161,428.5C 160.005,429.066 159.172,429.733 158.5,430.5C 156.901,430.232 155.568,430.566 154.5,431.5C 146.776,433.027 138.776,434.36 130.5,435.5C 128.456,435.8 126.456,436.133 124.5,436.5C 121.911,437.127 119.411,437.127 117,436.5C 114.358,437.959 111.691,438.292 109,437.5C 107.739,437.759 106.739,438.426 106,439.5C 105.617,438.944 105.117,438.611 104.5,438.5C 103.833,437.167 103.167,437.167 102.5,438.5C 102.167,438.5 101.833,438.5 101.5,438.5C 100.707,434.835 99.374,434.835 97.5,438.5C 95.62,438.027 93.7867,438.693 92,440.5C 91.3946,438.519 90.3946,438.185 89,439.5C 87,436.833 85,436.833 83,439.5C 82.6667,438.5 82.3333,437.5 82,436.5C 81.2303,437.598 80.397,437.598 79.5,436.5C 79.6107,435.883 79.944,435.383 80.5,435C 79.3523,433.351 78.019,431.851 76.5,430.5C 74.9291,431.309 73.2624,431.643 71.5,431.5C 71.1667,431.5 70.8333,431.5 70.5,431.5C 69.8596,428.352 68.8596,428.019 67.5,430.5C 67.1667,430.5 66.8333,430.5 66.5,430.5C 66.1788,428.952 65.1788,428.285 63.5,428.5C 63.5,427.833 63.5,427.167 63.5,426.5C 62.7455,424.534 61.5788,424.2 60,425.5C 57.7326,420.745 54.8992,416.412 51.5,412.5C 52.8333,411.5 52.8333,410.5 51.5,409.5C 52.7498,409.423 53.5831,408.756 54,407.5C 54.3333,407.833 54.6667,408.167 55,408.5C 54.8047,406.874 54.8047,405.207 55,403.5C 56.0113,402.663 57.1779,402.33 58.5,402.5C 65.8739,410.854 75.2072,415.52 86.5,416.5C 179.834,402 273.167,387.5 366.5,373C 384.301,367.938 393.967,356.105 395.5,337.5C 380,237.167 364.5,136.833 349,36.5C 346.678,23.1708 339.512,13.5041 327.5,7.5C 326.047,6.17513 326.381,5.3418 328.5,5C 326.014,4.29492 326.014,3.46158 328.5,2.5C 329.959,2.56745 331.292,2.23411 332.5,1.5 Z"/></g>
<g><path style="opacity:0.004" fill="#fefffe" d="M 340.5,1.5 C 341.833,2.16667 341.833,2.16667 340.5,1.5 Z"/></g>
<g><path style="opacity:0.004" fill="#fefffe" d="M 342.5,1.5 C 343.833,2.16667 343.833,2.16667 342.5,1.5 Z"/></g>
<g><path style="opacity:0.004" fill="#fefffe" d="M 344.5,2.5 C 345.289,2.78281 345.956,3.28281 346.5,4C 345.184,4.52811 344.517,4.02811 344.5,2.5 Z"/></g>
<g><path style="opacity:0.006" fill="#1f1f1f" d="M 301.5,4.5 C 297.38,7.02101 293.046,7.68768 288.5,6.5C 290.917,6.02231 293.084,5.02231 295,3.5C 295.667,6.16667 296.333,6.16667 297,3.5C 298.603,3.87143 300.103,4.20476 301.5,4.5 Z"/></g>
<g><path style="opacity:0.999" fill="#fefefe" d="M 301.5,4.5 C 301.833,4.5 302.167,4.5 302.5,4.5C 307.974,4.649 313.64,4.81567 319.5,5C 322.279,5.56104 324.946,6.39438 327.5,7.5C 339.512,13.5041 346.678,23.1708 349,36.5C 364.5,136.833 380,237.167 395.5,337.5C 393.967,356.105 384.301,367.938 366.5,373C 273.167,387.5 179.834,402 86.5,416.5C 75.2072,415.52 65.8739,410.854 58.5,402.5C 54.5845,398.282 52.0845,393.282 51,387.5C 35.3333,285.833 19.6667,184.167 4,82.5C 3.61742,83.056 3.11742,83.3893 2.5,83.5C 2.58577,82.5041 2.25244,81.6708 1.5,81C 3.48123,80.3946 3.81457,79.3946 2.5,78C 4.10661,76.951 4.77328,75.451 4.5,73.5C 5.67373,72.4863 6.3404,71.153 6.5,69.5C 7.83333,68.8333 7.83333,68.1667 6.5,67.5C 8.81512,66.1469 10.1485,64.4802 10.5,62.5C 11.404,61.791 11.7373,60.791 11.5,59.5C 11.5,58.8333 11.8333,58.5 12.5,58.5C 14.1292,58.6277 15.4625,57.6277 16.5,55.5C 17.9663,54.653 18.7996,53.3197 19,51.5C 19.3333,52.1667 19.6667,52.8333 20,53.5C 20.6979,52.3094 21.5313,51.3094 22.5,50.5C 23.791,50.7373 24.791,50.404 25.5,49.5C 27.0174,49.4894 28.1841,48.8228 29,47.5C 29.3333,47.8333 29.6667,48.1667 30,48.5C 30.8518,47.4293 31.6851,46.4293 32.5,45.5C 32.369,46.2389 32.5357,46.9056 33,47.5C 33.6708,46.7476 34.5041,46.4142 35.5,46.5C 35.8333,46.5 36.1667,46.5 36.5,46.5C 37.1667,46.5 37.8333,46.5 38.5,46.5C 42.3317,46.4131 45.665,45.4131 48.5,43.5C 49.2022,42.8843 50.2022,42.8843 51.5,43.5C 51.7352,44.0967 52.2352,44.4301 53,44.5C 55.146,44.212 56.3126,43.5453 56.5,42.5C 56.5,41.8333 56.1667,41.5 55.5,41.5C 55.1667,41.5 54.8333,41.5 54.5,41.5C 55.8333,40.1667 57.1667,40.1667 58.5,41.5C 58.4701,42.4972 58.9701,43.1639 60,43.5C 65.2733,42.8493 70.1067,41.5159 74.5,39.5C 76.4844,40.6942 78.4844,40.6942 80.5,39.5C 80.3764,38.8933 80.0431,38.56 79.5,38.5C 80.1667,37.1667 80.8333,37.1667 81.5,38.5C 84.9937,39.3352 88.6603,39.3352 92.5,38.5C 94.9597,36.6148 97.4597,36.2815 100,37.5C 102.069,36.7362 104.236,36.2362 106.5,36C 105.944,35.6174 105.611,35.1174 105.5,34.5C 105.938,33.4937 106.604,33.4937 107.5,34.5C 110.627,35.8149 113.627,35.4815 116.5,33.5C 116.5,33.1667 116.5,32.8333 116.5,32.5C 117.167,32.5 117.833,32.5 118.5,32.5C 117.939,35.1867 118.606,35.1867 120.5,32.5C 120.833,32.5 121.167,32.5 121.5,32.5C 121.917,33.1239 122.584,33.4573 123.5,33.5C 126.674,33.0092 129.674,32.3425 132.5,31.5C 132.833,31.5 133.167,31.5 133.5,31.5C 135.199,31.6602 136.866,31.4935 138.5,31C 137.584,30.7216 136.918,30.2216 136.5,29.5C 137.959,29.5674 139.292,29.2341 140.5,28.5C 140.791,29.6491 141.624,30.3158 143,30.5C 144.376,30.3158 145.209,29.6491 145.5,28.5C 146.167,28.5 146.833,28.5 147.5,28.5C 149.455,29.9302 151.121,29.5969 152.5,27.5C 152.833,27.5 153.167,27.5 153.5,27.5C 154.979,28.148 156.479,28.4814 158,28.5C 158.464,27.9056 158.631,27.2389 158.5,26.5C 159.202,25.8843 160.202,25.8843 161.5,26.5C 163.128,27.8528 164.462,27.5195 165.5,25.5C 166.492,25.6716 167.158,25.3382 167.5,24.5C 168.167,24.5 168.833,24.5 169.5,24.5C 169.369,25.3764 169.702,26.0431 170.5,26.5C 173.996,25.9217 177.329,24.9217 180.5,23.5C 182.662,24.4171 184.995,24.4171 187.5,23.5C 189.553,23.5979 191.22,22.9313 192.5,21.5C 194.726,23.18 196.393,22.8466 197.5,20.5C 197.833,20.5 198.167,20.5 198.5,20.5C 199.097,21.1386 199.93,21.472 201,21.5C 210.491,19.946 219.991,18.446 229.5,17C 232.051,16.9977 234.051,16.1644 235.5,14.5C 236.167,14.5 236.833,14.5 237.5,14.5C 238.946,15.6129 240.613,15.7796 242.5,15C 241.748,14.3292 241.414,13.4959 241.5,12.5C 242.708,13.2341 244.041,13.5674 245.5,13.5C 246.623,14.7574 247.289,14.4241 247.5,12.5C 247.833,12.5 248.167,12.5 248.5,12.5C 249.449,13.1524 250.615,13.4857 252,13.5C 254.221,13.6068 256.054,12.9402 257.5,11.5C 257.5,10.8333 257.167,10.5 256.5,10.5C 256.56,9.95691 256.893,9.62358 257.5,9.5C 258.182,10.2427 258.849,10.9094 259.5,11.5C 259.56,12.0431 259.893,12.3764 260.5,12.5C 266.123,11.7954 271.457,10.4621 276.5,8.5C 276.833,8.5 277.167,8.5 277.5,8.5C 277.917,9.12395 278.584,9.45728 279.5,9.5C 282.145,8.89241 284.812,8.39241 287.5,8C 286.906,7.53566 286.239,7.36899 285.5,7.5C 285.5,7.16667 285.5,6.83333 285.5,6.5C 286.798,5.88432 287.798,5.88432 288.5,6.5C 293.046,7.68768 297.38,7.02101 301.5,4.5 Z"/></g>
<g><path style="opacity:0.008" fill="#909090" d="M 336.5,3.5 C 337.167,3.5 337.5,3.83333 337.5,4.5C 336.778,4.91753 336.278,5.5842 336,6.5C 332.805,5.29732 332.971,4.29732 336.5,3.5 Z"/></g>
<g><path style="opacity:0.004" fill="#fefffe" d="M 347.5,5.5 C 347.897,4.47498 348.563,4.30831 349.5,5C 348.906,5.46434 348.239,5.63101 347.5,5.5 Z"/></g>
<g><path style="opacity:0.008" fill="#606060" d="M 343.5,5.5 C 344.338,5.84171 344.672,6.50838 344.5,7.5C 343.998,9.0847 342.998,9.5847 341.5,9C 341.884,8.0494 342.217,7.21607 342.5,6.5C 343.167,6.5 343.5,6.16667 343.5,5.5 Z"/></g>
<g><path style="opacity:0.004" fill="#fefffe" d="M 347.5,7.5 C 347.897,6.47498 348.563,6.30831 349.5,7C 348.906,7.46434 348.239,7.63101 347.5,7.5 Z"/></g>
<g><path style="opacity:0.004" fill="#fefffe" d="M 351.5,7.5 C 351.897,6.47498 352.563,6.30831 353.5,7C 352.906,7.46434 352.239,7.63101 351.5,7.5 Z"/></g>
<g><path style="opacity:0.005" fill="#343434" d="M 276.5,8.5 C 271.457,10.4621 266.123,11.7954 260.5,12.5C 259.893,12.3764 259.56,12.0431 259.5,11.5C 261.185,10.2913 262.852,9.29134 264.5,8.5C 268.702,8.76404 272.702,8.76404 276.5,8.5 Z"/></g>
<g><path style="opacity:0.008" fill="#494949" d="M 285.5,6.5 C 284.167,6.83333 284.167,7.16667 285.5,7.5C 286.239,7.36899 286.906,7.53566 287.5,8C 284.812,8.39241 282.145,8.89241 279.5,9.5C 278.584,9.45728 277.917,9.12395 277.5,8.5C 279.894,8.4944 282.227,7.4944 284.5,5.5C 285.107,5.62358 285.44,5.95691 285.5,6.5 Z"/></g>
<g><path style="opacity:0.004" fill="#fefffe" d="M 356.5,9.5 C 355.833,8.16667 355.833,8.16667 356.5,9.5 Z"/></g>
<g><path style="opacity:0.004" fill="#818181" d="M 354.5,12.5 C 353.279,13.4646 351.946,13.298 350.5,12C 350.728,11.6012 351.062,11.4346 351.5,11.5C 352.79,10.9423 353.623,9.94227 354,8.5C 354.062,10.1147 354.229,11.4481 354.5,12.5 Z"/></g>
<g><path style="opacity:0.004" fill="#fefffe" d="M 356.5,9.5 C 357.167,9.5 357.5,9.83333 357.5,10.5C 357.167,10.1667 356.833,9.83333 356.5,9.5 Z"/></g>
<g><path style="opacity:0.004" fill="#fefffe" d="M 357.5,10.5 C 358.833,11.1667 358.833,11.1667 357.5,10.5 Z"/></g>
<g><path style="opacity:0.004" fill="#000000" d="M 243.5,11.5 C 244.833,12.1667 244.833,12.1667 243.5,11.5 Z"/></g>
<g><path style="opacity:0.006" fill="#292929" d="M 247.5,12.5 C 247.289,14.4241 246.623,14.7574 245.5,13.5C 246.006,11.8946 246.673,11.5613 247.5,12.5 Z"/></g>
<g><path style="opacity:0.007" fill="#1f1f1f" d="M 256.5,10.5 C 257.167,10.5 257.5,10.8333 257.5,11.5C 256.054,12.9402 254.221,13.6068 252,13.5C 250.615,13.4857 249.449,13.1524 248.5,12.5C 251.399,12.7385 254.065,12.0719 256.5,10.5 Z"/></g>
<g><path style="opacity:0.004" fill="#fefffe" d="M 357.5,11.5 C 356.833,12.1667 356.833,12.1667 357.5,11.5 Z"/></g>
<g><path style="opacity:0.004" fill="#fefffe" d="M 237.5,13.5 C 236.833,12.1667 236.833,12.1667 237.5,13.5 Z"/></g>
<g><path style="opacity:0.008" fill="#505050" d="M 241.5,12.5 C 241.414,13.4959 241.748,14.3292 242.5,15C 240.613,15.7796 238.946,15.6129 237.5,14.5C 237.5,14.1667 237.5,13.8333 237.5,13.5C 238.959,13.5674 240.292,13.2341 241.5,12.5 Z"/></g>
<g><path style="opacity:0.006" fill="#272727" d="M 235.5,14.5 C 234.051,16.1644 232.051,16.9977 229.5,17C 219.991,18.446 210.491,19.946 201,21.5C 199.93,21.472 199.097,21.1386 198.5,20.5C 198.5,20.1667 198.5,19.8333 198.5,19.5C 199.609,19.5569 200.609,19.8902 201.5,20.5C 202.167,20.5 202.5,20.1667 202.5,19.5C 204.766,19.8588 206.599,19.1922 208,17.5C 209.714,18.9255 211.047,18.5922 212,16.5C 212.333,17.1667 212.667,17.8333 213,18.5C 214.996,18.0037 216.663,17.0037 218,15.5C 221.502,16.7211 225.002,16.7211 228.5,15.5C 229.647,15.1822 230.481,14.5156 231,13.5C 232.684,14.1929 234.184,14.5263 235.5,14.5 Z"/></g>
<g><path style="opacity:0.004" fill="#cfcfcf" d="M 361.5,18.5 C 360.833,18.5 360.5,18.1667 360.5,17.5C 361.386,16.2241 362.386,16.2241 363.5,17.5C 362.8,17.7871 362.133,18.1205 361.5,18.5 Z"/></g>
<g><path style="opacity:0.004" fill="#4e4e4e" d="M 204.5,18.5 C 204.897,17.475 205.563,17.3083 206.5,18C 205.906,18.4643 205.239,18.631 204.5,18.5 Z"/></g>
<g><path style="opacity:0.004" fill="#fefffe" d="M 198.5,19.5 C 199.833,18.1667 201.167,18.1667 202.5,19.5C 201.833,19.5 201.5,19.8333 201.5,20.5C 200.609,19.8902 199.609,19.5569 198.5,19.5 Z"/></g>
<g><path style="opacity:0.004" fill="#fefffe" d="M 364.5,21.5 C 363.833,21.5 363.5,21.1667 363.5,20.5C 365.346,19.2576 365.679,19.591 364.5,21.5 Z"/></g>
<g><path style="opacity:0.005" fill="#000000" d="M 192.5,21.5 C 191.22,22.9313 189.553,23.5979 187.5,23.5C 187.833,22.8333 188.167,22.1667 188.5,21.5C 189.964,20.5946 191.298,20.5946 192.5,21.5 Z"/></g>
<g><path style="opacity:0.008" fill="#575757" d="M 197.5,20.5 C 196.393,22.8466 194.726,23.18 192.5,21.5C 193.462,19.0144 194.295,19.0144 195,21.5C 195.342,19.3808 196.175,19.0474 197.5,20.5 Z"/></g>
<g><path style="opacity:0.008" fill="#6b6b6b" d="M 180.5,21.5 C 183.307,21.8877 185.974,21.8877 188.5,21.5C 188.167,22.1667 187.833,22.8333 187.5,23.5C 184.995,24.4171 182.662,24.4171 180.5,23.5C 180.5,22.8333 180.5,22.1667 180.5,21.5 Z"/></g>
<g><path style="opacity:0.004" fill="#000000" d="M 167.5,24.5 C 166.833,23.1667 166.833,23.1667 167.5,24.5 Z"/></g>
<g><path style="opacity:0.007" fill="#282828" d="M 180.5,21.5 C 180.5,22.1667 180.5,22.8333 180.5,23.5C 177.329,24.9217 173.996,25.9217 170.5,26.5C 169.702,26.0431 169.369,25.3764 169.5,24.5C 173.381,24.0648 177.047,23.0648 180.5,21.5 Z"/></g>
<g><path style="opacity:0.004" fill="#fefffe" d="M 161.5,25.5 C 160.833,24.1667 160.833,24.1667 161.5,25.5 Z"/></g>
<g><path style="opacity:0.007" fill="#242424" d="M 161.5,25.5 C 162.702,26.4054 164.036,26.4054 165.5,25.5C 164.462,27.5195 163.128,27.8528 161.5,26.5C 161.5,26.1667 161.5,25.8333 161.5,25.5 Z"/></g>
<g><path style="opacity:0.004" fill="#fefffe" d="M 147.5,27.5 C 146.833,26.1667 146.833,26.1667 147.5,27.5 Z"/></g>
<g><path style="opacity:0.006" fill="#000000" d="M 158.5,26.5 C 158.631,27.2389 158.464,27.9056 158,28.5C 156.479,28.4814 154.979,28.148 153.5,27.5C 154.919,26.5489 156.585,26.2155 158.5,26.5 Z"/></g>
<g><path style="opacity:0.016" fill="#5c5c5c" d="M 363.5,22.5 C 364.263,23.2679 365.263,23.7679 366.5,24C 365.829,24.9862 365.829,26.1529 366.5,27.5C 364.345,27.628 362.345,27.128 360.5,26C 361.5,25.6667 362.5,25.3333 363.5,25C 362.226,24.0228 362.226,23.1894 363.5,22.5 Z"/></g>
<g><path style="opacity:0.005" fill="#393939" d="M 152.5,27.5 C 151.121,29.5969 149.455,29.9302 147.5,28.5C 147.5,28.1667 147.5,27.8333 147.5,27.5C 149.36,26.9285 151.027,26.9285 152.5,27.5 Z"/></g>
<g><path style="opacity:0.006" fill="#191919" d="M 140.5,28.5 C 142.167,28.5 143.833,28.5 145.5,28.5C 145.209,29.6491 144.376,30.3158 143,30.5C 141.624,30.3158 140.791,29.6491 140.5,28.5 Z"/></g>
<g><path style="opacity:0.006" fill="#000000" d="M 136.5,29.5 C 136.918,30.2216 137.584,30.7216 138.5,31C 136.866,31.4935 135.199,31.6602 133.5,31.5C 134.29,30.5987 135.29,29.9321 136.5,29.5 Z"/></g>
<g><path style="opacity:0.004" fill="#000000" d="M 369.5,29.5 C 370.833,30.1667 370.833,30.1667 369.5,29.5 Z"/></g>
<g><path style="opacity:0.006" fill="#2e2e2e" d="M 132.5,31.5 C 129.674,32.3425 126.674,33.0092 123.5,33.5C 122.584,33.4573 121.917,33.1239 121.5,32.5C 121.328,31.5084 121.662,30.8417 122.5,30.5C 122.711,32.4241 123.377,32.7574 124.5,31.5C 126.269,31.7496 128.103,31.0829 130,29.5C 130.995,30.0659 131.828,30.7326 132.5,31.5 Z"/></g>
<g><path style="opacity:0.004" fill="#fefffe" d="M 122.5,30.5 C 123.167,30.8333 123.833,31.1667 124.5,31.5C 123.377,32.7574 122.711,32.4241 122.5,30.5 Z"/></g>
<g><path style="opacity:0.004" fill="#fefffe" d="M 116.5,32.5 C 115.833,31.1667 115.833,31.1667 116.5,32.5 Z"/></g>
<g><path style="opacity:0.005" fill="#000000" d="M 120.5,32.5 C 118.606,35.1867 117.939,35.1867 118.5,32.5C 119.396,31.4937 120.062,31.4937 120.5,32.5 Z"/></g>
<g><path style="opacity:0.004" fill="#fefffe" d="M 109.5,33.5 C 110.167,32.1667 110.833,32.1667 111.5,33.5C 111.062,34.5063 110.396,34.5063 109.5,33.5 Z"/></g>
<g><path style="opacity:0.012" fill="#5b5b5b" d="M 366.5,29.5 C 368.176,30.1834 368.843,31.5168 368.5,33.5C 367.352,34.895 366.352,34.7284 365.5,33C 365.653,31.7913 365.986,30.6246 366.5,29.5 Z"/></g>
<g><path style="opacity:0.004" fill="#fefffe" d="M 102.5,34.5 C 101.833,33.1667 101.833,33.1667 102.5,34.5 Z"/></g>
<g><path style="opacity:0.007" fill="#252525" d="M 109.5,33.5 C 110.396,34.5063 111.062,34.5063 111.5,33.5C 113.167,33.5 114.833,33.5 116.5,33.5C 113.627,35.4815 110.627,35.8149 107.5,34.5C 108.167,34.1667 108.833,33.8333 109.5,33.5 Z"/></g>
<g><path style="opacity:0.005" fill="#191919" d="M 102.5,34.5 C 103.5,34.5 104.5,34.5 105.5,34.5C 105.611,35.1174 105.944,35.6174 106.5,36C 104.236,36.2362 102.069,36.7362 100,37.5C 97.4597,36.2815 94.9597,36.6148 92.5,38.5C 92.5,37.8333 92.5,37.1667 92.5,36.5C 92.7828,35.7109 93.2828,35.0442 94,34.5C 97.1325,35.3854 99.9658,35.3854 102.5,34.5 Z"/></g>
<g><path style="opacity:0.004" fill="#fefffe" d="M 370.5,34.5 C 371.833,35.1667 371.833,35.1667 370.5,34.5 Z"/></g>
<g><path style="opacity:0.004" fill="#595959" d="M 92.5,36.5 C 92.5,37.1667 92.5,37.8333 92.5,38.5C 88.6603,39.3352 84.9937,39.3352 81.5,38.5C 82.4728,37.2086 83.4728,37.2086 84.5,38.5C 85.1973,36.6155 86.1973,36.2822 87.5,37.5C 88.4776,37.0233 89.3109,36.3567 90,35.5C 90.6708,36.2524 91.5041,36.5858 92.5,36.5 Z"/></g>
<g><path style="opacity:0.005" fill="#202020" d="M 74.5,39.5 C 76.0502,39.5079 77.7168,39.1746 79.5,38.5C 80.0431,38.56 80.3764,38.8933 80.5,39.5C 78.4844,40.6942 76.4844,40.6942 74.5,39.5 Z"/></g>
<g><path style="opacity:0.006" fill="#2b2b2b" d="M 74.5,39.5 C 70.1067,41.5159 65.2733,42.8493 60,43.5C 58.9701,43.1639 58.4701,42.4972 58.5,41.5C 60.1238,41.6399 61.2904,40.9733 62,39.5C 62.6667,42.1667 63.3333,42.1667 64,39.5C 67.4511,39.7357 70.9511,39.7357 74.5,39.5 Z"/></g>
<g><path style="opacity:0.004" fill="#fefffe" d="M 51.5,42.5 C 50.8333,41.1667 50.8333,41.1667 51.5,42.5 Z"/></g>
<g><path style="opacity:0.004" fill="#fefffe" d="M 372.5,41.5 C 373.833,42.1667 373.833,42.1667 372.5,41.5 Z"/></g>
<g><path style="opacity:0.004" fill="#fefffe" d="M 42.5,42.5 C 43.8333,43.1667 43.8333,43.1667 42.5,42.5 Z"/></g>
<g><path style="opacity:0.008" fill="#313131" d="M 54.5,41.5 C 54.8333,41.5 55.1667,41.5 55.5,41.5C 56.1667,41.5 56.5,41.8333 56.5,42.5C 56.3126,43.5453 55.146,44.212 53,44.5C 52.2352,44.4301 51.7352,44.0967 51.5,43.5C 51.5,43.1667 51.5,42.8333 51.5,42.5C 52.791,42.7373 53.791,42.404 54.5,41.5 Z"/></g>
<g><path style="opacity:0.004" fill="#fefffe" d="M 32.5,44.5 C 33.8333,45.1667 33.8333,45.1667 32.5,44.5 Z"/></g>
<g><path style="opacity:0.004" fill="#3b3b3b" d="M 36.5,46.5 C 36.1667,46.5 35.8333,46.5 35.5,46.5C 35.3691,45.6236 35.7025,44.9569 36.5,44.5C 37.463,44.9698 37.463,45.6365 36.5,46.5 Z"/></g>
<g><path style="opacity:0.005" fill="#3f3f3f" d="M 42.5,43.5 C 44.3322,43.8339 46.3322,43.8339 48.5,43.5C 45.665,45.4131 42.3317,46.4131 38.5,46.5C 39.2114,44.7986 40.5447,43.7986 42.5,43.5 Z"/></g>
<g><path style="opacity:0.004" fill="#fefffe" d="M 25.5,46.5 C 26.8333,47.1667 26.8333,47.1667 25.5,46.5 Z"/></g>
<g><path style="opacity:0.004" fill="#fefffe" d="M 373.5,47.5 C 374.833,48.1667 374.833,48.1667 373.5,47.5 Z"/></g>
<g><path style="opacity:0.004" fill="#fefffe" d="M 25.5,49.5 C 24.8333,48.1667 24.8333,48.1667 25.5,49.5 Z"/></g>
<g><path style="opacity:0.004" fill="#fefffe" d="M 22.5,50.5 C 21.8333,49.1667 21.8333,49.1667 22.5,50.5 Z"/></g>
<g><path style="opacity:0.004" fill="#fefffe" d="M 16.5,55.5 C 14.9382,55.7329 13.6049,56.3995 12.5,57.5C 12.7619,55.4362 13.9286,54.1029 16,53.5C 16.4643,54.0944 16.631,54.7611 16.5,55.5 Z"/></g>
<g><path style="opacity:0.004" fill="#fefffe" d="M 12.5,57.5 C 12.5,57.8333 12.5,58.1667 12.5,58.5C 11.8333,58.5 11.5,58.8333 11.5,59.5C 10.2426,58.3774 10.5759,57.7107 12.5,57.5 Z"/></g>
<g><path style="opacity:0.004" fill="#fefffe" d="M 7.5,61.5 C 8.83333,62.1667 8.83333,62.1667 7.5,61.5 Z"/></g>
<g><path style="opacity:0.004" fill="#fefffe" d="M 10.5,62.5 C 9.83333,61.1667 9.83333,61.1667 10.5,62.5 Z"/></g>
<g><path style="opacity:0.004" fill="#fefffe" d="M 7.5,62.5 C 6.83333,63.1667 6.83333,63.1667 7.5,62.5 Z"/></g>
<g><path style="opacity:0.004" fill="#dddddd" d="M 375.5,64.5 C 375.5,64.8333 375.5,65.1667 375.5,65.5C 374.637,66.463 373.97,66.463 373.5,65.5C 373.957,64.7025 374.624,64.3691 375.5,64.5 Z"/></g>
<g><path style="opacity:0.004" fill="#fefffe" d="M 5.5,67.5 C 4.83333,66.1667 4.83333,66.1667 5.5,67.5 Z"/></g>
<g><path style="opacity:0.004" fill="#4e4e4e" d="M 5.5,67.5 C 5.83333,67.5 6.16667,67.5 6.5,67.5C 6.5,68.1667 6.5,68.8333 6.5,69.5C 5.66175,69.1583 5.32842,68.4916 5.5,67.5 Z"/></g>
<g><path style="opacity:0.004" fill="#fefffe" d="M 376.5,72.5 C 375.833,72.5 375.5,72.1667 375.5,71.5C 377.409,70.3207 377.742,70.654 376.5,72.5 Z"/></g>
<g><path style="opacity:0.004" fill="#4e4e4e" d="M 4.5,73.5 C 3.76109,73.631 3.09442,73.4643 2.5,73C 3.43677,72.3083 4.10343,72.475 4.5,73.5 Z"/></g>
<g><path style="opacity:0.004" fill="#fefffe" d="M 2.5,74.5 C 3.52502,74.8966 3.69169,75.5632 3,76.5C 2.53566,75.9056 2.36899,75.2389 2.5,74.5 Z"/></g>
<g><path style="opacity:0.004" fill="#fefffe" d="M 0.5,79.5 C 0.368989,78.7611 0.535656,78.0944 1,77.5C 1.69169,78.4368 1.52502,79.1034 0.5,79.5 Z"/></g>
<g><path style="opacity:0.004" fill="#fefffe" d="M -0.5,79.5 C -0.166667,79.5 0.166667,79.5 0.5,79.5C 0.67158,80.4916 0.338246,81.1583 -0.5,81.5C -0.5,80.8333 -0.5,80.1667 -0.5,79.5 Z"/></g>
<g><path style="opacity:1" fill="#f1c8f6" d="M 70.5,87.5 C 62.6045,85.4057 54.6045,83.739 46.5,82.5C 46.44,81.9569 46.1067,81.6236 45.5,81.5C 44.5344,83.396 44.2011,85.396 44.5,87.5C 43.5318,85.3926 43.1984,83.0593 43.5,80.5C 50.8633,81.6162 58.1966,82.9496 65.5,84.5C 67.6926,84.7705 69.3593,85.7705 70.5,87.5 Z"/></g>
<g><path style="opacity:0.004" fill="#fefffe" d="M -0.5,85.5 C 0.833333,86.1667 0.833333,86.1667 -0.5,85.5 Z"/></g>
<g><path style="opacity:1" fill="#bd00fd" d="M 168.5,111.5 C 172.007,113.077 175.674,114.743 179.5,116.5C 187.01,117.169 194.343,118.669 201.5,121C 204.817,121.498 208.15,121.665 211.5,121.5C 215.912,123.128 220.245,125.294 224.5,128C 244.163,132.033 263.83,135.866 283.5,139.5C 283.833,139.5 284.167,139.5 284.5,139.5C 298.674,144.374 313.341,147.707 328.5,149.5C 329.167,149.5 329.833,149.5 330.5,149.5C 330.611,150.117 330.944,150.617 331.5,151C 334.854,151.455 338.187,151.955 341.5,152.5C 344.239,173.233 347.239,193.9 350.5,214.5C 349.167,214.5 347.833,214.5 346.5,214.5C 345.432,213.566 344.099,213.232 342.5,213.5C 342.423,212.25 341.756,211.417 340.5,211C 325.75,206.782 310.75,203.449 295.5,201C 294.328,200.581 293.328,199.915 292.5,199C 285.042,197.539 277.709,195.873 270.5,194C 265.898,192.878 261.232,192.378 256.5,192.5C 256.389,191.883 256.056,191.383 255.5,191C 244.83,188.13 234.163,185.13 223.5,182C 197.372,177.717 171.705,171.717 146.5,164C 142.534,163.172 138.534,162.672 134.5,162.5C 125.561,159.342 116.227,157.675 106.5,157.5C 106.167,157.5 105.833,157.5 105.5,157.5C 103.444,155.798 101.11,154.465 98.5,153.5C 84.139,150.73 69.9723,147.397 56,143.5C 52.9113,124.201 50.078,104.867 47.5,85.5C 63.5207,90.0865 79.8541,93.2532 96.5,95C 113.345,100.197 130.345,104.864 147.5,109C 154.375,110.883 161.375,111.716 168.5,111.5 Z"/></g>
<g><path style="opacity:1" fill="#c674da" d="M 46.5,82.5 C 45.8712,87.3181 45.8712,92.3181 46.5,97.5C 45.2154,94.4115 44.5488,91.0781 44.5,87.5C 44.2011,85.396 44.5344,83.396 45.5,81.5C 46.1067,81.6236 46.44,81.9569 46.5,82.5 Z"/></g>
<g><path style="opacity:1" fill="#df9eeb" d="M 70.5,87.5 C 74.2198,87.5642 77.8865,88.0642 81.5,89C 82.056,89.3826 82.3893,89.8826 82.5,90.5C 78.2873,89.9175 74.2873,88.9175 70.5,87.5 Z"/></g>
<g><path style="opacity:0.004" fill="#fefffe" d="M -0.5,90.5 C 0.338246,90.8417 0.67158,91.5084 0.5,92.5C 0.166667,92.5 -0.166667,92.5 -0.5,92.5C -0.5,91.8333 -0.5,91.1667 -0.5,90.5 Z"/></g>
<g><path style="opacity:0.004" fill="#fefffe" d="M 379.5,90.5 C 380.833,91.1667 380.833,91.1667 379.5,90.5 Z"/></g>
<g><path style="opacity:0.008" fill="#bdbdbd" d="M 378.5,90.5 C 378.5,91.1667 378.833,91.5 379.5,91.5C 379.5,91.8333 379.5,92.1667 379.5,92.5C 377.576,92.2893 377.243,91.6226 378.5,90.5 Z"/></g>
<g><path style="opacity:0.004" fill="#c6c6c6" d="M 0.5,92.5 C 0.833333,92.5 1.16667,92.5 1.5,92.5C 2.83333,93.5 2.83333,94.5 1.5,95.5C 1.44312,94.391 1.10978,93.391 0.5,92.5 Z"/></g>
<g><path style="opacity:1" fill="#ebbcf3" d="M 123.5,99.5 C 127.475,98.8578 130.808,99.8578 133.5,102.5C 129.786,102.41 126.452,101.41 123.5,99.5 Z"/></g>
<g><path style="opacity:0.004" fill="#c2c2c2" d="M 381.5,100.5 C 382.494,102.334 382.494,104.001 381.5,105.5C 380.909,104.849 380.243,104.182 379.5,103.5C 380.641,102.575 380.641,101.741 379.5,101C 380.094,100.536 380.761,100.369 381.5,100.5 Z"/></g>
<g><path style="opacity:1" fill="#bb58d6" d="M 46.5,98.5 C 47.2216,98.9175 47.7216,99.5842 48,100.5C 48.5482,104.17 49.0482,107.837 49.5,111.5C 48.8333,110.5 48.1667,109.5 47.5,108.5C 47.3841,105.14 47.0508,101.807 46.5,98.5 Z"/></g>
<g><path style="opacity:1" fill="#e09dee" d="M 139.5,103.5 C 142.228,103.171 144.562,103.837 146.5,105.5C 143.848,105.59 141.515,104.924 139.5,103.5 Z"/></g>
<g><path style="opacity:1" fill="#ecbdf3" d="M 146.5,105.5 C 149.187,105.336 151.854,105.503 154.5,106C 155.416,106.278 156.082,106.778 156.5,107.5C 152.96,107.247 149.627,106.581 146.5,105.5 Z"/></g>
<g><path style="opacity:1" fill="#f1caf7" d="M 156.5,107.5 C 161.596,107.429 166.596,108.095 171.5,109.5C 176.806,111.593 182.139,113.259 187.5,114.5C 181.11,113.824 174.777,112.824 168.5,111.5C 164.678,109.587 160.678,108.254 156.5,107.5 Z"/></g>
<g><path style="opacity:0.004" fill="#fefffe" d="M 382.5,108.5 C 383.833,109.167 383.833,109.167 382.5,108.5 Z"/></g>
<g><path style="opacity:0.004" fill="#fefffe" d="M 3.5,113.5 C 2.83333,114.167 2.83333,114.167 3.5,113.5 Z"/></g>
<g><path style="opacity:1" fill="#df99ec" d="M 47.5,108.5 C 48.1667,109.5 48.8333,110.5 49.5,111.5C 50.6095,120.49 51.6095,129.49 52.5,138.5C 50.4219,128.698 48.7553,118.698 47.5,108.5 Z"/></g>
<g><path style="opacity:1" fill="#dea0ea" d="M 191.5,115.5 C 195.084,115.975 198.417,116.975 201.5,118.5C 197.714,118.68 194.381,117.68 191.5,115.5 Z"/></g>
<g><path style="opacity:0.008" fill="#616161" d="M 382.5,116.5 C 383.167,116.5 383.5,116.833 383.5,117.5C 384.405,118.702 384.405,120.036 383.5,121.5C 381.403,120.121 381.07,118.455 382.5,116.5 Z"/></g>
<g><path style="opacity:1" fill="#f0c8f6" d="M 211.5,120.5 C 207.96,120.247 204.627,119.581 201.5,118.5C 203.199,118.38 204.865,118.046 206.5,117.5C 208.336,118.396 210.003,119.396 211.5,120.5 Z"/></g>
<g><path style="opacity:1" fill="#ab27db" d="M 168.5,111.5 C 174.777,112.824 181.11,113.824 187.5,114.5C 188.568,115.434 189.901,115.768 191.5,115.5C 194.381,117.68 197.714,118.68 201.5,118.5C 204.627,119.581 207.96,120.247 211.5,120.5C 211.5,120.833 211.5,121.167 211.5,121.5C 208.15,121.665 204.817,121.498 201.5,121C 194.343,118.669 187.01,117.169 179.5,116.5C 175.674,114.743 172.007,113.077 168.5,111.5 Z"/></g>
<g><path style="opacity:1" fill="#e2a5ed" d="M 211.5,121.5 C 211.5,121.167 211.5,120.833 211.5,120.5C 216.744,120.882 221.744,121.882 226.5,123.5C 227.833,124.167 229.167,124.833 230.5,125.5C 224.147,124.274 217.814,122.941 211.5,121.5 Z"/></g>
<g><path style="opacity:1" fill="#f5d2f9" d="M 226.5,123.5 C 230.556,123.777 234.556,124.444 238.5,125.5C 239.713,125.747 240.38,126.414 240.5,127.5C 237.167,126.833 233.833,126.167 230.5,125.5C 229.167,124.833 227.833,124.167 226.5,123.5 Z"/></g>
<g><path style="opacity:1" fill="#e8b0f1" d="M 246.5,128.5 C 249.428,128.565 252.095,129.232 254.5,130.5C 251.447,130.889 248.78,130.223 246.5,128.5 Z"/></g>
<g><path style="opacity:1" fill="#f0c1f6" d="M 254.5,130.5 C 257.829,130.215 260.829,130.882 263.5,132.5C 260.219,132.58 257.219,131.913 254.5,130.5 Z"/></g>
<g><path style="opacity:0.004" fill="#000000" d="M 6.5,132.5 C 5.83333,133.167 5.83333,133.167 6.5,132.5 Z"/></g>
<g><path style="opacity:0.004" fill="#fefffe" d="M 386.5,132.5 C 387.833,133.167 387.833,133.167 386.5,132.5 Z"/></g>
<g><path style="opacity:1" fill="#ad20e0" d="M 211.5,121.5 C 217.814,122.941 224.147,124.274 230.5,125.5C 233.833,126.167 237.167,126.833 240.5,127.5C 242.265,128.461 244.265,128.795 246.5,128.5C 248.78,130.223 251.447,130.889 254.5,130.5C 257.219,131.913 260.219,132.58 263.5,132.5C 265.657,133.407 267.99,134.073 270.5,134.5C 272.515,135.924 274.848,136.59 277.5,136.5C 277.833,136.5 278.167,136.5 278.5,136.5C 280.261,137.313 281.928,138.313 283.5,139.5C 263.83,135.866 244.163,132.033 224.5,128C 220.245,125.294 215.912,123.128 211.5,121.5 Z"/></g>
<g><path style="opacity:1" fill="#ab29da" d="M 46.5,82.5 C 54.6045,83.739 62.6045,85.4057 70.5,87.5C 74.2873,88.9175 78.2873,89.9175 82.5,90.5C 96.0223,93.9627 109.689,96.9627 123.5,99.5C 126.452,101.41 129.786,102.41 133.5,102.5C 135.621,102.325 137.621,102.659 139.5,103.5C 141.515,104.924 143.848,105.59 146.5,105.5C 149.627,106.581 152.96,107.247 156.5,107.5C 160.678,108.254 164.678,109.587 168.5,111.5C 161.375,111.716 154.375,110.883 147.5,109C 130.345,104.864 113.345,100.197 96.5,95C 79.8541,93.2532 63.5207,90.0865 47.5,85.5C 50.078,104.867 52.9113,124.201 56,143.5C 69.9723,147.397 84.139,150.73 98.5,153.5C 101.11,154.465 103.444,155.798 105.5,157.5C 100.494,156.405 95.4944,155.405 90.5,154.5C 88.3647,152.631 85.6981,151.964 82.5,152.5C 79.4557,150.989 76.1224,150.322 72.5,150.5C 71.0813,149.549 69.4147,149.216 67.5,149.5C 67.3893,148.883 67.056,148.383 66.5,148C 62.7502,147.74 59.0836,147.073 55.5,146C 54.0331,143.622 53.0331,141.122 52.5,138.5C 51.6095,129.49 50.6095,120.49 49.5,111.5C 49.0482,107.837 48.5482,104.17 48,100.5C 47.7216,99.5842 47.2216,98.9175 46.5,98.5C 46.5,98.1667 46.5,97.8333 46.5,97.5C 45.8712,92.3181 45.8712,87.3181 46.5,82.5 Z"/></g>
<g><path style="opacity:0.004" fill="#fefffe" d="M 6.5,135.5 C 7.33825,135.842 7.67158,136.508 7.5,137.5C 5.89461,136.994 5.56127,136.327 6.5,135.5 Z"/></g>
<g><path style="opacity:1" fill="#dc92ed" d="M 270.5,134.5 C 273.152,134.41 275.485,135.076 277.5,136.5C 274.848,136.59 272.515,135.924 270.5,134.5 Z"/></g>
<g><path style="opacity:0.004" fill="#000000" d="M 386.5,135.5 C 387.833,136.167 387.833,136.167 386.5,135.5 Z"/></g>
<g><path style="opacity:1" fill="#d47fe8" d="M 278.5,136.5 C 282.233,136.87 285.899,137.537 289.5,138.5C 289.5,138.833 289.5,139.167 289.5,139.5C 287.833,139.5 286.167,139.5 284.5,139.5C 284.167,139.5 283.833,139.5 283.5,139.5C 281.928,138.313 280.261,137.313 278.5,136.5 Z"/></g>
<g><path style="opacity:0.008" fill="#767676" d="M 8.5,140.5 C 10.8418,141.211 11.1751,142.544 9.5,144.5C 8.69057,143.531 7.69057,142.698 6.5,142C 7.4158,141.722 8.08247,141.222 8.5,140.5 Z"/></g>
<g><path style="opacity:1" fill="#f0c8f6" d="M 289.5,139.5 C 289.5,139.167 289.5,138.833 289.5,138.5C 297.81,139.996 306.143,141.496 314.5,143C 315.571,143.852 316.571,144.685 317.5,145.5C 308.002,144.073 298.668,142.073 289.5,139.5 Z"/></g>
<g><path style="opacity:0.004" fill="#000000" d="M 387.5,141.5 C 388.833,142.167 388.833,142.167 387.5,141.5 Z"/></g>
<g><path style="opacity:1" fill="#ab26da" d="M 284.5,139.5 C 286.167,139.5 287.833,139.5 289.5,139.5C 298.668,142.073 308.002,144.073 317.5,145.5C 321.167,146.833 324.833,148.167 328.5,149.5C 313.341,147.707 298.674,144.374 284.5,139.5 Z"/></g>
<g><path style="opacity:1" fill="#f3d1f7" d="M 52.5,138.5 C 53.0331,141.122 54.0331,143.622 55.5,146C 59.0836,147.073 62.7502,147.74 66.5,148C 67.056,148.383 67.3893,148.883 67.5,149.5C 62.6635,149.266 57.9969,148.266 53.5,146.5C 52.6072,143.916 52.2739,141.249 52.5,138.5 Z"/></g>
<g><path style="opacity:1" fill="#eab4f3" d="M 317.5,145.5 C 321.876,145.84 326.209,146.507 330.5,147.5C 331.713,147.747 332.38,148.414 332.5,149.5C 331.833,149.5 331.167,149.5 330.5,149.5C 329.833,149.5 329.167,149.5 328.5,149.5C 324.833,148.167 321.167,146.833 317.5,145.5 Z"/></g>
<g><path style="opacity:0.004" fill="#000000" d="M 388.5,147.5 C 389.833,148.167 389.833,148.167 388.5,147.5 Z"/></g>
<g><path style="opacity:1" fill="#e8b4f1" d="M 72.5,150.5 C 76.1224,150.322 79.4557,150.989 82.5,152.5C 78.9219,152.451 75.5885,151.785 72.5,150.5 Z"/></g>
<g><path style="opacity:1" fill="#ca7ade" d="M 82.5,152.5 C 85.6981,151.964 88.3647,152.631 90.5,154.5C 87.5718,154.435 84.9052,153.768 82.5,152.5 Z"/></g>
<g><path style="opacity:0.016" fill="#1d1d1d" d="M 58.5,402.5 C 57.1779,402.33 56.0113,402.663 55,403.5C 54.8047,405.207 54.8047,406.874 55,408.5C 54.6667,408.167 54.3333,407.833 54,407.5C 53.5831,408.756 52.7498,409.423 51.5,409.5C 50.4861,407.426 49.4861,405.426 48.5,403.5C 47.4019,402.603 47.4019,401.77 48.5,401C 46.0426,399.846 46.0426,398.512 48.5,397C 46.8753,396.147 46.5419,395.147 47.5,394C 46.5797,390.57 45.5797,387.57 44.5,385C 45.1667,384.667 45.8333,384.333 46.5,384C 45.6195,383.292 44.9528,382.458 44.5,381.5C 45.0431,381.44 45.3764,381.107 45.5,380.5C 42.972,379.184 42.972,378.017 45.5,377C 44.8333,376.667 44.1667,376.333 43.5,376C 43.6054,373.842 43.6054,371.675 43.5,369.5C 45.7813,368.366 45.7813,367.032 43.5,365.5C 42.8333,364.5 42.1667,363.5 41.5,362.5C 42.1667,362.5 42.5,362.167 42.5,361.5C 42.5,361.167 42.5,360.833 42.5,360.5C 41.1938,359.533 40.5271,358.199 40.5,356.5C 40.9595,354.292 40.9595,352.126 40.5,350C 39.6919,349.692 39.0253,349.192 38.5,348.5C 39.4415,348.511 40.1081,348.011 40.5,347C 38.0817,343.249 36.7484,339.416 36.5,335.5C 37.5748,332.562 37.7415,329.562 37,326.5C 36.3457,327.696 35.8457,327.696 35.5,326.5C 35.5266,323.807 35.5266,321.14 35.5,318.5C 36.7574,317.377 36.4241,316.711 34.5,316.5C 36.0603,314.871 35.727,313.704 33.5,313C 33.7898,311.522 33.7898,310.022 33.5,308.5C 33.2279,306.686 33.0613,304.686 33,302.5C 32.3457,303.696 31.8457,303.696 31.5,302.5C 31.6322,301.037 31.9655,299.537 32.5,298C 31.9777,297.05 31.311,296.216 30.5,295.5C 30.7061,292.947 31.0394,290.447 31.5,288C 30.8333,287.333 30.1667,286.667 29.5,286C 30.528,283.299 30.528,280.799 29.5,278.5C 30.2389,278.631 30.9056,278.464 31.5,278C 30.7362,275.931 30.2362,273.764 30,271.5C 29.7216,272.416 29.2216,273.082 28.5,273.5C 28.5,272.5 28.5,271.5 28.5,270.5C 29.5063,270.062 29.5063,269.396 28.5,268.5C 28.1667,267.833 27.8333,267.167 27.5,266.5C 28.1239,266.083 28.4573,265.416 28.5,264.5C 28.2528,263.287 27.5862,262.62 26.5,262.5C 25.6371,261.06 25.6371,259.726 26.5,258.5C 25.8333,258.167 25.1667,257.833 24.5,257.5C 25.1667,256.833 25.8333,256.167 26.5,255.5C 26.3764,254.893 26.0431,254.56 25.5,254.5C 25.2208,251.882 24.5541,249.382 23.5,247C 23.7284,246.601 24.0618,246.435 24.5,246.5C 26.9238,244.772 27.0904,242.772 25,240.5C 24.6174,241.056 24.1174,241.389 23.5,241.5C 22.8288,240.153 22.8288,238.986 23.5,238C 21.1088,237.309 21.1088,236.309 23.5,235C 21.8753,234.147 21.5419,233.147 22.5,232C 21.8724,229.2 20.8724,226.533 19.5,224C 20.1276,221.63 20.4609,219.297 20.5,217C 19.701,214.392 18.701,211.726 17.5,209C 18.0509,207.602 18.3842,206.268 18.5,205C 17.8333,204.667 17.1667,204.333 16.5,204C 16.4205,202.093 16.7539,200.093 17.5,198C 16.898,195.964 15.898,194.13 14.5,192.5C 16.087,190.554 15.7536,189.054 13.5,188C 14.4158,187.722 15.0825,187.222 15.5,186.5C 18.4528,184.436 18.1195,183.103 14.5,182.5C 13.5655,181.432 13.2322,180.099 13.5,178.5C 15.7813,177.366 15.7813,176.032 13.5,174.5C 11.3969,173.02 11.3969,171.853 13.5,171C 10.5125,168.123 10.1792,165.123 12.5,162C 11.9558,161.283 11.2891,160.783 10.5,160.5C 10.8333,159.833 11.1667,159.167 11.5,158.5C 11.1166,156.592 10.1166,155.092 8.5,154C 8.20438,150.604 8.53772,147.437 9.5,144.5C 11.1751,142.544 10.8418,141.211 8.5,140.5C 5.90277,140.279 5.90277,139.779 8.5,139C 7.94404,138.617 7.61071,138.117 7.5,137.5C 7.67158,136.508 7.33825,135.842 6.5,135.5C 7.62495,134.348 7.62495,133.348 6.5,132.5C 5.41961,130.955 5.41961,129.455 6.5,128C 6.09464,127.055 5.42797,126.388 4.5,126C 4.83333,125 5.16667,124 5.5,123C 2.83333,122.333 2.83333,121.667 5.5,121C 4.83333,120 4.16667,119 3.5,118C 3.78981,116.522 3.78981,115.022 3.5,113.5C 1.42052,110.353 1.08718,107.019 2.5,103.5C 2.02335,102.522 1.35668,101.689 0.5,101C 3.064,99.2644 2.73067,98.0978 -0.5,97.5C -0.5,97.1667 -0.5,96.8333 -0.5,96.5C 0.491622,96.6716 1.15829,96.3382 1.5,95.5C 2.83333,94.5 2.83333,93.5 1.5,92.5C 1.66997,91.1779 1.33663,90.0113 0.5,89C 2.08291,87.1026 2.74957,85.2693 2.5,83.5C 3.11742,83.3893 3.61742,83.056 4,82.5C 19.6667,184.167 35.3333,285.833 51,387.5C 52.0845,393.282 54.5845,398.282 58.5,402.5 Z"/></g>
<g><path style="opacity:0.004" fill="#fefffe" d="M 390.5,157.5 C 391.833,158.167 391.833,158.167 390.5,157.5 Z"/></g>
<g><path style="opacity:0.004" fill="#b8b8b8" d="M 11.5,158.5 C 11.1667,159.167 10.8333,159.833 10.5,160.5C 9.24258,159.377 9.57591,158.711 11.5,158.5 Z"/></g>
<g><path style="opacity:1" fill="#f0baf7" d="M 106.5,158.5 C 109.781,158.42 112.781,159.087 115.5,160.5C 112.219,160.58 109.219,159.913 106.5,158.5 Z"/></g>
<g><path style="opacity:1" fill="#af38d9" d="M 106.5,158.5 C 106.5,158.167 106.5,157.833 106.5,157.5C 116.227,157.675 125.561,159.342 134.5,162.5C 138.034,163.265 141.368,164.598 144.5,166.5C 139.515,165.407 134.515,164.407 129.5,163.5C 125.143,161.581 120.477,160.581 115.5,160.5C 112.781,159.087 109.781,158.42 106.5,158.5 Z"/></g>
<g><path style="opacity:0.004" fill="#000000" d="M 390.5,159.5 C 391.833,160.167 391.833,160.833 390.5,161.5C 390.5,160.833 390.5,160.167 390.5,159.5 Z"/></g>
<g><path style="opacity:1" fill="#f0caf6" d="M 115.5,160.5 C 120.477,160.581 125.143,161.581 129.5,163.5C 126.581,163.915 123.748,163.915 121,163.5C 119.141,162.325 117.308,161.325 115.5,160.5 Z"/></g>
<g><path style="opacity:1" fill="#d5a6de" d="M 342.5,151.5 C 344.045,152.23 344.878,153.563 345,155.5C 347.937,173.118 350.437,190.785 352.5,208.5C 349.289,189.569 345.955,170.569 342.5,151.5 Z"/></g>
<g><path style="opacity:1" fill="#f3d3f8" d="M 145.5,167.5 C 149.86,168.007 154.193,168.673 158.5,169.5C 160.102,171.074 162.102,171.741 164.5,171.5C 165.833,172.167 167.167,172.833 168.5,173.5C 160.325,173.005 152.659,171.005 145.5,167.5 Z"/></g>
<g><path style="opacity:1" fill="#c868e0" d="M 158.5,169.5 C 160.898,169.259 162.898,169.926 164.5,171.5C 162.102,171.741 160.102,171.074 158.5,169.5 Z"/></g>
<g><path style="opacity:0.004" fill="#d2d2d2" d="M 391.5,171.5 C 392.167,171.5 392.5,171.833 392.5,172.5C 391.167,172.833 391.167,173.167 392.5,173.5C 392.167,174.167 391.833,174.833 391.5,175.5C 389.219,173.968 389.219,172.634 391.5,171.5 Z"/></g>
<g><path style="opacity:0.004" fill="#fefffe" d="M 392.5,172.5 C 393.833,173.167 393.833,173.167 392.5,172.5 Z"/></g>
<g><path style="opacity:1" fill="#eab6f3" d="M 178.5,175.5 C 181.829,175.215 184.829,175.882 187.5,177.5C 184.273,177.324 181.273,176.657 178.5,175.5 Z"/></g>
<g><path style="opacity:0.012" fill="#8e8e8e" d="M 13.5,174.5 C 15.7813,176.032 15.7813,177.366 13.5,178.5C 13.5,177.167 13.5,175.833 13.5,174.5 Z"/></g>
<g><path style="opacity:1" fill="#9526bd" d="M 330.5,149.5 C 331.167,149.5 331.833,149.5 332.5,149.5C 335.903,149.851 339.237,150.518 342.5,151.5C 345.955,170.569 349.289,189.569 352.5,208.5C 352.5,210.833 352.5,213.167 352.5,215.5C 350.265,215.795 348.265,215.461 346.5,214.5C 347.833,214.5 349.167,214.5 350.5,214.5C 347.239,193.9 344.239,173.233 341.5,152.5C 338.187,151.955 334.854,151.455 331.5,151C 330.944,150.617 330.611,150.117 330.5,149.5 Z"/></g>
<g><path style="opacity:1" fill="#ad2add" d="M 134.5,162.5 C 138.534,162.672 142.534,163.172 146.5,164C 171.705,171.717 197.372,177.717 223.5,182C 234.163,185.13 244.83,188.13 255.5,191C 256.056,191.383 256.389,191.883 256.5,192.5C 253.193,191.949 249.86,191.616 246.5,191.5C 246.158,190.662 245.492,190.328 244.5,190.5C 239.312,187.557 233.646,186.224 227.5,186.5C 225.565,185.85 223.565,185.517 221.5,185.5C 217.32,182.901 212.654,181.568 207.5,181.5C 200.974,179.577 194.307,178.243 187.5,177.5C 184.829,175.882 181.829,175.215 178.5,175.5C 175.456,173.989 172.122,173.322 168.5,173.5C 167.167,172.833 165.833,172.167 164.5,171.5C 162.898,169.926 160.898,169.259 158.5,169.5C 154.193,168.673 149.86,168.007 145.5,167.5C 145.5,166.833 145.167,166.5 144.5,166.5C 141.368,164.598 138.034,163.265 134.5,162.5 Z"/></g>
<g><path style="opacity:0.004" fill="#fefffe" d="M 393.5,178.5 C 394.833,179.167 394.833,179.167 393.5,178.5 Z"/></g>
<g><path style="opacity:0.008" fill="#7f7f7f" d="M 14.5,182.5 C 18.1195,183.103 18.4528,184.436 15.5,186.5C 15.6618,185.408 15.3284,184.075 14.5,182.5 Z"/></g>
<g><path style="opacity:1" fill="#db92eb" d="M 207.5,181.5 C 212.654,181.568 217.32,182.901 221.5,185.5C 217.473,185.051 213.473,184.384 209.5,183.5C 208.287,183.253 207.62,182.586 207.5,181.5 Z"/></g>
<g><path style="opacity:0.004" fill="#000000" d="M 394.5,185.5 C 395.833,186.167 395.833,186.167 394.5,185.5 Z"/></g>
<g><path style="opacity:1" fill="#c568df" d="M 227.5,186.5 C 233.646,186.224 239.312,187.557 244.5,190.5C 238.689,189.296 233.022,187.962 227.5,186.5 Z"/></g>
<g><path style="opacity:1" fill="#e9b5f1" d="M 246.5,191.5 C 249.86,191.616 253.193,191.949 256.5,192.5C 256.5,192.833 256.5,193.167 256.5,193.5C 252.878,193.678 249.544,193.011 246.5,191.5 Z"/></g>
<g><path style="opacity:1" fill="#ca77df" d="M 256.5,193.5 C 259.698,192.964 262.365,193.631 264.5,195.5C 261.572,195.435 258.905,194.768 256.5,193.5 Z"/></g>
<g><path style="opacity:1" fill="#aa0ce0" d="M 256.5,193.5 C 256.5,193.167 256.5,192.833 256.5,192.5C 261.232,192.378 265.898,192.878 270.5,194C 277.709,195.873 285.042,197.539 292.5,199C 293.328,199.915 294.328,200.581 295.5,201C 310.75,203.449 325.75,206.782 340.5,211C 341.756,211.417 342.423,212.25 342.5,213.5C 334.29,211.507 325.957,209.84 317.5,208.5C 300.959,205.07 284.626,200.737 268.5,195.5C 267.833,195.5 267.167,195.5 266.5,195.5C 265.833,195.5 265.167,195.5 264.5,195.5C 262.365,193.631 259.698,192.964 256.5,193.5 Z"/></g>
<g><path style="opacity:1" fill="#d0a7da" d="M 266.5,195.5 C 267.167,195.5 267.833,195.5 268.5,195.5C 267.167,198.353 264.834,200.019 261.5,200.5C 263.006,198.599 264.673,196.932 266.5,195.5 Z"/></g>
<g><path style="opacity:1" fill="#6c0099" d="M 268.5,195.5 C 284.626,200.737 300.959,205.07 317.5,208.5C 313.166,207.663 308.832,207.163 304.5,207C 308.71,211.247 311.21,216.413 312,222.5C 315.369,225.582 317.369,229.248 318,233.5C 310.013,238.005 302.179,242.671 294.5,247.5C 290.02,244.841 286.687,241.008 284.5,236C 279.409,235.821 278.409,233.821 281.5,230C 279.234,228.477 278.067,226.311 278,223.5C 276.736,221.393 274.903,220.393 272.5,220.5C 272.852,217.927 272.352,215.594 271,213.5C 270.667,214.833 270.333,216.167 270,217.5C 269.667,217.167 269.333,216.833 269,216.5C 268.888,213.753 269.054,211.253 269.5,209C 267.68,208.021 266.513,206.521 266,204.5C 265.275,203.941 264.442,203.608 263.5,203.5C 262.133,204.225 260.8,204.892 259.5,205.5C 260.506,204.604 260.506,203.938 259.5,203.5C 260.167,202.5 260.833,201.5 261.5,200.5C 264.834,200.019 267.167,198.353 268.5,195.5 Z"/></g>
<g><path style="opacity:1" fill="#ca96d7" d="M 261.5,200.5 C 260.833,201.5 260.167,202.5 259.5,203.5C 257.167,204.167 254.833,204.833 252.5,205.5C 255.144,203.277 258.144,201.611 261.5,200.5 Z"/></g>
<g><path style="opacity:1" fill="#61048a" d="M 317.5,208.5 C 325.957,209.84 334.29,211.507 342.5,213.5C 344.099,213.232 345.432,213.566 346.5,214.5C 348.265,215.461 350.265,215.795 352.5,215.5C 350.267,217.348 347.934,219.015 345.5,220.5C 343.435,220.953 341.768,221.953 340.5,223.5C 337.898,224.451 335.565,225.784 333.5,227.5C 328.904,230.091 324.237,232.591 319.5,235C 317.382,236.049 315.716,237.549 314.5,239.5C 307.668,242.412 301.334,246.079 295.5,250.5C 293.326,250.75 291.659,251.75 290.5,253.5C 288.326,253.75 286.659,254.75 285.5,256.5C 282.605,257.399 279.938,258.733 277.5,260.5C 276.402,259.603 276.402,258.77 277.5,258C 283.265,254.587 288.931,251.087 294.5,247.5C 302.179,242.671 310.013,238.005 318,233.5C 317.369,229.248 315.369,225.582 312,222.5C 311.21,216.413 308.71,211.247 304.5,207C 308.832,207.163 313.166,207.663 317.5,208.5 Z"/></g>
<g><path style="opacity:1" fill="#7801a9" d="M 294.5,247.5 C 288.931,251.087 283.265,254.587 277.5,258C 276.402,258.77 276.402,259.603 277.5,260.5C 275.754,262.252 273.754,263.585 271.5,264.5C 271.167,264.5 270.833,264.5 270.5,264.5C 269.432,263.566 268.099,263.232 266.5,263.5C 266.785,261.712 266.452,260.045 265.5,258.5C 263.759,255.358 261.759,252.358 259.5,249.5C 259.241,243.277 257.075,237.944 253,233.5C 252.759,230.711 252.092,228.044 251,225.5C 248.54,224.042 246.373,222.209 244.5,220C 245.614,218.43 246.947,217.097 248.5,216C 246.527,215.505 244.527,215.338 242.5,215.5C 245.735,213.556 248.901,211.223 252,208.5C 254.535,207.465 257.035,206.465 259.5,205.5C 260.8,204.892 262.133,204.225 263.5,203.5C 264.442,203.608 265.275,203.941 266,204.5C 266.513,206.521 267.68,208.021 269.5,209C 269.054,211.253 268.888,213.753 269,216.5C 269.333,216.833 269.667,217.167 270,217.5C 270.333,216.167 270.667,214.833 271,213.5C 272.352,215.594 272.852,217.927 272.5,220.5C 274.903,220.393 276.736,221.393 278,223.5C 278.067,226.311 279.234,228.477 281.5,230C 278.409,233.821 279.409,235.821 284.5,236C 286.687,241.008 290.02,244.841 294.5,247.5 Z"/></g>
<g><path style="opacity:0.004" fill="#fefffe" d="M 399.5,216.5 C 400.833,217.167 400.833,217.167 399.5,216.5 Z"/></g>
<g><path style="opacity:1" fill="#d4b4db" d="M 352.5,208.5 C 355.082,215.418 352.748,219.418 345.5,220.5C 347.934,219.015 350.267,217.348 352.5,215.5C 352.5,213.167 352.5,210.833 352.5,208.5 Z"/></g>
<g><path style="opacity:1" fill="#8131a4" d="M 259.5,203.5 C 260.506,203.938 260.506,204.604 259.5,205.5C 257.035,206.465 254.535,207.465 252,208.5C 248.901,211.223 245.735,213.556 242.5,215.5C 234.416,219.319 226.416,222.986 218.5,226.5C 229.568,219.136 240.902,212.136 252.5,205.5C 254.833,204.833 257.167,204.167 259.5,203.5 Z"/></g>
<g><path style="opacity:1" fill="#8100b6" d="M 242.5,215.5 C 244.527,215.338 246.527,215.505 248.5,216C 246.947,217.097 245.614,218.43 244.5,220C 246.373,222.209 248.54,224.042 251,225.5C 252.092,228.044 252.759,230.711 253,233.5C 257.075,237.944 259.241,243.277 259.5,249.5C 261.759,252.358 263.759,255.358 265.5,258.5C 266.452,260.045 266.785,261.712 266.5,263.5C 265.412,265 264.079,266.333 262.5,267.5C 257.394,269.578 252.727,272.245 248.5,275.5C 247.107,275.009 246.107,273.509 245.5,271C 244.552,270.517 243.552,270.351 242.5,270.5C 243.036,267.424 242.036,264.924 239.5,263C 239.833,262.667 240.167,262.333 240.5,262C 238.162,258.997 235.829,255.997 233.5,253C 233.121,250.908 232.454,248.908 231.5,247C 232.577,244.436 231.744,243.936 229,245.5C 227.212,243.996 226.712,242.329 227.5,240.5C 225.557,236.737 224.223,232.737 223.5,228.5C 221.263,229.449 218.929,230.116 216.5,230.5C 217.806,229.533 218.473,228.199 218.5,226.5C 226.416,222.986 234.416,219.319 242.5,215.5 Z"/></g>
<g><path style="opacity:1" fill="#c9acd2" d="M 340.5,223.5 C 338.973,226.068 336.639,227.401 333.5,227.5C 335.565,225.784 337.898,224.451 340.5,223.5 Z"/></g>
<g><path style="opacity:1" fill="#d4b4dc" d="M 333.5,227.5 C 328.851,231.001 324.184,234.501 319.5,238C 317.846,238.608 316.179,239.108 314.5,239.5C 315.716,237.549 317.382,236.049 319.5,235C 324.237,232.591 328.904,230.091 333.5,227.5 Z"/></g>
<g><path style="opacity:1" fill="#8b2fb3" d="M 218.5,226.5 C 218.473,228.199 217.806,229.533 216.5,230.5C 213.692,232.479 210.692,234.312 207.5,236C 205.833,236.333 204.167,236.667 202.5,237C 201.778,238.751 200.778,240.251 199.5,241.5C 196.916,241.569 194.916,242.735 193.5,245C 190.793,245.395 188.127,245.895 185.5,246.5C 185.804,245.85 186.137,245.183 186.5,244.5C 196.945,238.044 207.612,232.044 218.5,226.5 Z"/></g>
<g><path style="opacity:1" fill="#8a00c2" d="M 248.5,275.5 C 241.086,280.239 233.42,284.572 225.5,288.5C 224.909,287.849 224.243,287.182 223.5,286.5C 227.444,284.596 227.11,283.596 222.5,283.5C 221.942,277.934 219.942,273.101 216.5,269C 217.167,268.333 217.833,267.667 218.5,267C 216.559,265.097 214.226,264.264 211.5,264.5C 209.386,257.44 206.053,250.94 201.5,245C 202.337,243.989 202.67,242.822 202.5,241.5C 201.5,241.5 200.5,241.5 199.5,241.5C 200.778,240.251 201.778,238.751 202.5,237C 204.167,236.667 205.833,236.333 207.5,236C 210.692,234.312 213.692,232.479 216.5,230.5C 218.929,230.116 221.263,229.449 223.5,228.5C 224.223,232.737 225.557,236.737 227.5,240.5C 226.712,242.329 227.212,243.996 229,245.5C 231.744,243.936 232.577,244.436 231.5,247C 232.454,248.908 233.121,250.908 233.5,253C 235.829,255.997 238.162,258.997 240.5,262C 240.167,262.333 239.833,262.667 239.5,263C 242.036,264.924 243.036,267.424 242.5,270.5C 243.552,270.351 244.552,270.517 245.5,271C 246.107,273.509 247.107,275.009 248.5,275.5 Z"/></g>
<g><path style="opacity:0.008" fill="#8b8b8b" d="M 401.5,237.5 C 403.698,237.409 404.031,238.075 402.5,239.5C 399.075,239.633 398.742,238.967 401.5,237.5 Z"/></g>
<g><path style="opacity:0.004" fill="#fefffe" d="M 403.5,241.5 C 404.833,242.167 404.833,242.167 403.5,241.5 Z"/></g>
<g><path style="opacity:0.004" fill="#565656" d="M 24.5,246.5 C 24.0825,245.778 23.4158,245.278 22.5,245C 24.8912,244.309 24.8912,243.309 22.5,242C 22.7284,241.601 23.0618,241.435 23.5,241.5C 24.1174,241.389 24.6174,241.056 25,240.5C 27.0904,242.772 26.9238,244.772 24.5,246.5 Z"/></g>
<g><path style="opacity:1" fill="#9104c9" d="M 199.5,241.5 C 200.5,241.5 201.5,241.5 202.5,241.5C 202.67,242.822 202.337,243.989 201.5,245C 206.053,250.94 209.386,257.44 211.5,264.5C 214.226,264.264 216.559,265.097 218.5,267C 217.833,267.667 217.167,268.333 216.5,269C 219.942,273.101 221.942,277.934 222.5,283.5C 227.11,283.596 227.444,284.596 223.5,286.5C 224.243,287.182 224.909,287.849 225.5,288.5C 222.621,290.968 219.288,292.635 215.5,293.5C 215.5,294.5 215.5,295.5 215.5,296.5C 213.5,297.167 211.5,297.833 209.5,298.5C 210.511,296.801 211.845,295.301 213.5,294C 213.389,292.278 212.889,292.112 212,293.5C 210.983,291.624 210.149,289.624 209.5,287.5C 208.914,287.709 208.414,288.043 208,288.5C 205.951,285.894 203.784,283.394 201.5,281C 202.574,280.261 203.241,279.261 203.5,278C 201.64,275.872 200.306,273.372 199.5,270.5C 198.049,268.441 196.049,267.441 193.5,267.5C 193.753,265.173 193.086,263.173 191.5,261.5C 192.758,262.016 193.758,261.35 194.5,259.5C 192.604,258.534 190.604,258.201 188.5,258.5C 188.5,256.833 188.5,255.167 188.5,253.5C 187.009,252.543 185.176,251.877 183,251.5C 177.339,253.821 172.172,256.988 167.5,261C 165.527,261.495 163.527,261.662 161.5,261.5C 161.5,261.167 161.5,260.833 161.5,260.5C 163.848,260.408 165.514,259.408 166.5,257.5C 172.203,252.914 178.536,249.248 185.5,246.5C 188.127,245.895 190.793,245.395 193.5,245C 194.916,242.735 196.916,241.569 199.5,241.5 Z"/></g>
<g><path style="opacity:0.004" fill="#000000" d="M 403.5,246.5 C 404.833,247.167 404.833,247.167 403.5,246.5 Z"/></g>
<g><path style="opacity:1" fill="#cba4d5" d="M 295.5,250.5 C 294.514,252.408 292.848,253.408 290.5,253.5C 291.659,251.75 293.326,250.75 295.5,250.5 Z"/></g>
<g><path style="opacity:0.004" fill="#fefffe" d="M 25.5,254.5 C 24.8333,255.167 24.8333,255.167 25.5,254.5 Z"/></g>
<g><path style="opacity:1" fill="#cda2d9" d="M 290.5,253.5 C 289.514,255.408 287.848,256.408 285.5,256.5C 286.659,254.75 288.326,253.75 290.5,253.5 Z"/></g>
<g><path style="opacity:0.004" fill="#fefffe" d="M 405.5,255.5 C 406.833,256.167 406.833,256.167 405.5,255.5 Z"/></g>
<g><path style="opacity:1" fill="#9a01d6" d="M 209.5,298.5 C 205.158,302.308 200.158,305.141 194.5,307C 193.252,308.4 192.252,309.9 191.5,311.5C 190.694,312.728 189.694,313.728 188.5,314.5C 186.326,314.75 184.659,315.75 183.5,317.5C 180.669,318.079 178.336,319.412 176.5,321.5C 174.566,322.11 172.899,323.11 171.5,324.5C 169.326,324.75 167.659,325.75 166.5,327.5C 165.167,328.167 163.833,328.833 162.5,329.5C 166.095,324.838 170.762,321.338 176.5,319C 178.167,317.333 179.833,315.667 181.5,314C 180.382,312.926 179.382,311.76 178.5,310.5C 177.108,311.605 175.941,312.939 175,314.5C 174.5,314 174,313.5 173.5,313C 176.1,310.541 176.1,308.041 173.5,305.5C 173.709,304.914 174.043,304.414 174.5,304C 172.012,301.258 170.179,298.091 169,294.5C 167.933,293.809 166.766,293.309 165.5,293C 164.478,290.8 163.145,288.8 161.5,287C 162.604,285.869 162.271,285.035 160.5,284.5C 159.699,280.255 158.032,276.422 155.5,273C 156.361,270.679 155.361,269.513 152.5,269.5C 153.859,267.482 155.193,265.482 156.5,263.5C 158.403,263.204 160.07,262.537 161.5,261.5C 163.527,261.662 165.527,261.495 167.5,261C 172.172,256.988 177.339,253.821 183,251.5C 185.176,251.877 187.009,252.543 188.5,253.5C 188.5,255.167 188.5,256.833 188.5,258.5C 190.604,258.201 192.604,258.534 194.5,259.5C 193.758,261.35 192.758,262.016 191.5,261.5C 193.086,263.173 193.753,265.173 193.5,267.5C 196.049,267.441 198.049,268.441 199.5,270.5C 200.306,273.372 201.64,275.872 203.5,278C 203.241,279.261 202.574,280.261 201.5,281C 203.784,283.394 205.951,285.894 208,288.5C 208.414,288.043 208.914,287.709 209.5,287.5C 210.149,289.624 210.983,291.624 212,293.5C 212.889,292.112 213.389,292.278 213.5,294C 211.845,295.301 210.511,296.801 209.5,298.5 Z"/></g>
<g><path style="opacity:1" fill="#c47bd8" d="M 166.5,257.5 C 165.514,259.408 163.848,260.408 161.5,260.5C 162.659,258.75 164.326,257.75 166.5,257.5 Z"/></g>
<g><path style="opacity:0.004" fill="#eeeeee" d="M 26.5,262.5 C 27.5862,262.62 28.2528,263.287 28.5,264.5C 28.4573,265.416 28.1239,266.083 27.5,266.5C 27.4894,264.983 26.8228,263.816 25.5,263C 25.7284,262.601 26.0618,262.435 26.5,262.5 Z"/></g>
<g><path style="opacity:1" fill="#c178d6" d="M 161.5,260.5 C 161.5,260.833 161.5,261.167 161.5,261.5C 160.07,262.537 158.403,263.204 156.5,263.5C 157.659,261.75 159.326,260.75 161.5,260.5 Z"/></g>
<g><path style="opacity:0.004" fill="#fefffe" d="M 25.5,265.5 C 26.8333,266.167 26.8333,266.167 25.5,265.5 Z"/></g>
<g><path style="opacity:1" fill="#d9b2e3" d="M 270.5,264.5 C 270.833,264.5 271.167,264.5 271.5,264.5C 270.415,266.587 268.749,267.92 266.5,268.5C 267.5,266.833 268.833,265.5 270.5,264.5 Z"/></g>
<g><path style="opacity:0.004" fill="#c6c6c6" d="M 28.5,268.5 C 29.5063,269.396 29.5063,270.062 28.5,270.5C 26.0673,270.214 26.0673,269.548 28.5,268.5 Z"/></g>
<g><path style="opacity:0.004" fill="#fefffe" d="M 407.5,270.5 C 408.833,271.167 408.833,271.167 407.5,270.5 Z"/></g>
<g><path style="opacity:0.008" fill="#838383" d="M 29.5,278.5 C 29.0825,277.778 28.4158,277.278 27.5,277C 29.8912,276.309 29.8912,275.309 27.5,274C 27.7284,273.601 28.0618,273.435 28.5,273.5C 29.2216,273.082 29.7216,272.416 30,271.5C 30.2362,273.764 30.7362,275.931 31.5,278C 30.9056,278.464 30.2389,278.631 29.5,278.5 Z"/></g>
<g><path style="opacity:1" fill="#a400e4" d="M 152.5,269.5 C 155.361,269.513 156.361,270.679 155.5,273C 158.032,276.422 159.699,280.255 160.5,284.5C 162.271,285.035 162.604,285.869 161.5,287C 163.145,288.8 164.478,290.8 165.5,293C 166.766,293.309 167.933,293.809 169,294.5C 170.179,298.091 172.012,301.258 174.5,304C 174.043,304.414 173.709,304.914 173.5,305.5C 176.1,308.041 176.1,310.541 173.5,313C 174,313.5 174.5,314 175,314.5C 175.941,312.939 177.108,311.605 178.5,310.5C 179.382,311.76 180.382,312.926 181.5,314C 179.833,315.667 178.167,317.333 176.5,319C 170.762,321.338 166.095,324.838 162.5,329.5C 160.924,330.143 159.59,331.143 158.5,332.5C 158.167,332.5 157.833,332.5 157.5,332.5C 157.781,330.037 158.781,327.87 160.5,326C 157.956,324.437 157.956,322.937 160.5,321.5C 156.706,317.369 152.706,312.702 148.5,307.5C 147.886,302.78 145.553,299.28 141.5,297C 141.357,294.959 141.691,292.792 142.5,290.5C 139.475,288.77 136.809,286.604 134.5,284C 136.559,282.815 136.726,281.648 135,280.5C 132.212,282.061 129.378,283.394 126.5,284.5C 126.804,283.85 127.137,283.183 127.5,282.5C 135.771,277.982 144.105,273.649 152.5,269.5 Z"/></g>
<g><path style="opacity:1" fill="#801cab" d="M 266.5,263.5 C 268.099,263.232 269.432,263.566 270.5,264.5C 268.833,265.5 267.5,266.833 266.5,268.5C 257.312,272.709 248.645,277.709 240.5,283.5C 237.669,284.079 235.336,285.412 233.5,287.5C 231.326,287.75 229.659,288.75 228.5,290.5C 220.411,294.561 212.745,299.228 205.5,304.5C 204.29,304.932 203.29,305.599 202.5,306.5C 199.008,307.41 196.008,309.076 193.5,311.5C 192.833,311.5 192.167,311.5 191.5,311.5C 192.252,309.9 193.252,308.4 194.5,307C 200.158,305.141 205.158,302.308 209.5,298.5C 211.5,297.833 213.5,297.167 215.5,296.5C 215.5,295.5 215.5,294.5 215.5,293.5C 219.288,292.635 222.621,290.968 225.5,288.5C 233.42,284.572 241.086,280.239 248.5,275.5C 252.727,272.245 257.394,269.578 262.5,267.5C 264.079,266.333 265.412,265 266.5,263.5 Z"/></g>
<g><path style="opacity:1" fill="#a136cb" d="M 156.5,263.5 C 155.193,265.482 153.859,267.482 152.5,269.5C 144.105,273.649 135.771,277.982 127.5,282.5C 127.137,283.183 126.804,283.85 126.5,284.5C 123.975,286.177 121.309,287.677 118.5,289C 115.454,289.739 112.454,290.572 109.5,291.5C 124.699,281.4 140.366,272.066 156.5,263.5 Z"/></g>
<g><path style="opacity:0.004" fill="#000000" d="M 409.5,281.5 C 410.833,282.167 410.833,282.167 409.5,281.5 Z"/></g>
<g><path style="opacity:1" fill="#ab01ec" d="M 157.5,332.5 C 156.101,333.89 154.434,334.89 152.5,335.5C 148.593,335.408 145.26,336.742 142.5,339.5C 142.5,338.5 142.5,337.5 142.5,336.5C 148.701,334.324 148.201,330.991 141,326.5C 140.333,324.5 139.667,322.5 139,320.5C 138,320.167 137,319.833 136,319.5C 135.322,314.135 132.655,310.135 128,307.5C 127.316,306.216 127.483,305.049 128.5,304C 126.404,300.546 124.238,297.046 122,293.5C 118.927,292.383 115.76,292.216 112.5,293C 110.713,294.319 108.713,295.152 106.5,295.5C 107.5,294.167 108.5,292.833 109.5,291.5C 112.454,290.572 115.454,289.739 118.5,289C 121.309,287.677 123.975,286.177 126.5,284.5C 129.378,283.394 132.212,282.061 135,280.5C 136.726,281.648 136.559,282.815 134.5,284C 136.809,286.604 139.475,288.77 142.5,290.5C 141.691,292.792 141.357,294.959 141.5,297C 145.553,299.28 147.886,302.78 148.5,307.5C 152.706,312.702 156.706,317.369 160.5,321.5C 157.956,322.937 157.956,324.437 160.5,326C 158.781,327.87 157.781,330.037 157.5,332.5 Z"/></g>
<g><path style="opacity:1" fill="#dbb1e5" d="M 240.5,283.5 C 238.992,286.093 236.659,287.426 233.5,287.5C 235.336,285.412 237.669,284.079 240.5,283.5 Z"/></g>
<g><path style="opacity:1" fill="#d2a0df" d="M 233.5,287.5 C 232.514,289.408 230.848,290.408 228.5,290.5C 229.659,288.75 231.326,287.75 233.5,287.5 Z"/></g>
<g><path style="opacity:1" fill="#bc5dd8" d="M 109.5,291.5 C 108.5,292.833 107.5,294.167 106.5,295.5C 103.682,296.97 100.682,297.97 97.5,298.5C 101.268,295.797 105.268,293.463 109.5,291.5 Z"/></g>
<g><path style="opacity:1" fill="#b100f5" d="M 142.5,339.5 C 137.933,341.4 133.6,343.734 129.5,346.5C 128.07,344.845 127.236,342.845 127,340.5C 126.311,341.357 125.478,342.023 124.5,342.5C 123.833,339.833 123.167,337.167 122.5,334.5C 120.262,337.433 119.262,337.099 119.5,333.5C 118.5,333.5 117.5,333.5 116.5,333.5C 116.297,331.61 116.963,330.11 118.5,329C 116.792,326.957 114.792,325.29 112.5,324C 112.957,323.586 113.291,323.086 113.5,322.5C 112.101,319.946 110.101,318.28 107.5,317.5C 108.1,313.484 107.1,309.984 104.5,307C 104.833,306.667 105.167,306.333 105.5,306C 104.207,305.51 102.873,305.343 101.5,305.5C 101.5,304.5 101.5,303.5 101.5,302.5C 100.167,302.5 98.8333,302.5 97.5,302.5C 100.529,300.301 103.529,297.968 106.5,295.5C 108.713,295.152 110.713,294.319 112.5,293C 115.76,292.216 118.927,292.383 122,293.5C 124.238,297.046 126.404,300.546 128.5,304C 127.483,305.049 127.316,306.216 128,307.5C 132.655,310.135 135.322,314.135 136,319.5C 137,319.833 138,320.167 139,320.5C 139.667,322.5 140.333,324.5 141,326.5C 148.201,330.991 148.701,334.324 142.5,336.5C 142.5,337.5 142.5,338.5 142.5,339.5 Z"/></g>
<g><path style="opacity:0.004" fill="#fefffe" d="M 411.5,294.5 C 412.833,295.167 412.833,295.167 411.5,294.5 Z"/></g>
<g><path style="opacity:1" fill="#e3b9ea" d="M 228.5,290.5 C 224.725,293.098 221.058,295.931 217.5,299C 213.346,300.844 209.346,302.678 205.5,304.5C 212.745,299.228 220.411,294.561 228.5,290.5 Z"/></g>
<g><path style="opacity:1" fill="#d88de9" d="M 97.5,298.5 C 96.5144,300.408 94.8477,301.408 92.5,301.5C 93.6594,299.75 95.326,298.75 97.5,298.5 Z"/></g>
<g><path style="opacity:1" fill="#edb9f5" d="M 92.5,301.5 C 91.1007,302.89 89.4341,303.89 87.5,304.5C 88.344,302.241 90.0107,301.241 92.5,301.5 Z"/></g>
<g><path style="opacity:0.004" fill="#a2a2a2" d="M 412.5,300.5 C 413.833,301.167 413.833,301.833 412.5,302.5C 412.5,301.833 412.5,301.167 412.5,300.5 Z"/></g>
<g><path style="opacity:1" fill="#b800fc" d="M 97.5,302.5 C 98.8333,302.5 100.167,302.5 101.5,302.5C 101.5,303.5 101.5,304.5 101.5,305.5C 102.873,305.343 104.207,305.51 105.5,306C 105.167,306.333 104.833,306.667 104.5,307C 107.1,309.984 108.1,313.484 107.5,317.5C 110.101,318.28 112.101,319.946 113.5,322.5C 113.291,323.086 112.957,323.586 112.5,324C 114.792,325.29 116.792,326.957 118.5,329C 116.963,330.11 116.297,331.61 116.5,333.5C 117.5,333.5 118.5,333.5 119.5,333.5C 119.262,337.099 120.262,337.433 122.5,334.5C 123.167,337.167 123.833,339.833 124.5,342.5C 125.478,342.023 126.311,341.357 127,340.5C 127.236,342.845 128.07,344.845 129.5,346.5C 120.276,352.033 110.943,357.533 101.5,363C 99.5614,363.908 98.5614,365.408 98.5,367.5C 95.6703,367.694 93.0037,368.361 90.5,369.5C 87.8823,351.343 85.2156,333.176 82.5,315C 82.8333,313.5 83.1667,312 83.5,310.5C 87.7078,306.943 92.3744,304.276 97.5,302.5 Z"/></g>
<g><path style="opacity:0.008" fill="#9c9c9c" d="M 411.5,301.5 C 411.5,302.167 411.833,302.5 412.5,302.5C 412.833,304.5 413.167,306.5 413.5,308.5C 412.466,307.313 411.133,306.48 409.5,306C 410.099,304.378 410.766,302.878 411.5,301.5 Z"/></g>
<g><path style="opacity:0.004" fill="#fefffe" d="M 33.5,308.5 C 32.8333,309.167 32.8333,309.167 33.5,308.5 Z"/></g>
<g><path style="opacity:1" fill="#ebc6f1" d="M 202.5,306.5 C 200.297,309.438 197.297,311.105 193.5,311.5C 196.008,309.076 199.008,307.41 202.5,306.5 Z"/></g>
<g><path style="opacity:0.004" fill="#a5a5a5" d="M 412.5,310.5 C 414.379,310.393 414.712,310.893 413.5,312C 415.842,313.392 415.842,314.225 413.5,314.5C 412.766,313.292 412.433,311.959 412.5,310.5 Z"/></g>
<g><path style="opacity:0.004" fill="#fefffe" d="M 34.5,316.5 C 36.4241,316.711 36.7574,317.377 35.5,318.5C 35.1667,317.833 34.8333,317.167 34.5,316.5 Z"/></g>
<g><path style="opacity:1" fill="#dca7e6" d="M 188.5,314.5 C 187.514,316.408 185.848,317.408 183.5,317.5C 184.659,315.75 186.326,314.75 188.5,314.5 Z"/></g>
<g><path style="opacity:1" fill="#d587e6" d="M 80.5,309.5 C 81.1667,316.5 81.8333,323.5 82.5,330.5C 80.1319,323.608 79.4653,316.608 80.5,309.5 Z"/></g>
<g><path style="opacity:0.004" fill="#fefffe" d="M 415.5,319.5 C 416.833,320.167 416.833,320.167 415.5,319.5 Z"/></g>
<g><path style="opacity:1" fill="#dfaee8" d="M 183.5,317.5 C 182.652,319.093 181.319,320.26 179.5,321C 178.552,321.483 177.552,321.649 176.5,321.5C 178.336,319.412 180.669,318.079 183.5,317.5 Z"/></g>
<g><path style="opacity:1" fill="#e7baef" d="M 176.5,321.5 C 175.656,323.759 173.989,324.759 171.5,324.5C 172.899,323.11 174.566,322.11 176.5,321.5 Z"/></g>
<g><path style="opacity:1" fill="#d799e4" d="M 171.5,324.5 C 170.514,326.408 168.848,327.408 166.5,327.5C 167.659,325.75 169.326,324.75 171.5,324.5 Z"/></g>
<g><path style="opacity:0.004" fill="#000000" d="M 416.5,327.5 C 417.833,328.167 417.833,328.167 416.5,327.5 Z"/></g>
<g><path style="opacity:0.004" fill="#fefffe" d="M 35.5,328.5 C 36.8333,329.167 36.8333,329.167 35.5,328.5 Z"/></g>
<g><path style="opacity:1" fill="#ebc1f2" d="M 166.5,327.5 C 164.874,330.622 162.208,332.288 158.5,332.5C 159.59,331.143 160.924,330.143 162.5,329.5C 163.833,328.833 165.167,328.167 166.5,327.5 Z"/></g>
<g><path style="opacity:0.004" fill="#bdbdbd" d="M 417.5,337.5 C 417.577,338.75 418.244,339.583 419.5,340C 418.906,340.464 418.239,340.631 417.5,340.5C 416.609,339.739 415.942,338.739 415.5,337.5C 415.97,336.537 416.637,336.537 417.5,337.5 Z"/></g>
<g><path style="opacity:1" fill="#a626d6" d="M 152.5,335.5 C 149.991,336.921 147.657,338.588 145.5,340.5C 143.033,340.755 141.033,341.755 139.5,343.5C 138.5,344.167 137.5,344.833 136.5,345.5C 134.973,345.427 133.973,346.094 133.5,347.5C 131.326,347.75 129.659,348.75 128.5,350.5C 124.164,352.332 120.164,354.665 116.5,357.5C 114.326,357.75 112.659,358.75 111.5,360.5C 107.226,363.028 102.893,365.362 98.5,367.5C 98.5614,365.408 99.5614,363.908 101.5,363C 110.943,357.533 120.276,352.033 129.5,346.5C 133.6,343.734 137.933,341.4 142.5,339.5C 145.26,336.742 148.593,335.408 152.5,335.5 Z"/></g>
<g><path style="opacity:0.004" fill="#fefffe" d="M 418.5,341.5 C 419.833,342.167 419.833,342.167 418.5,341.5 Z"/></g>
<g><path style="opacity:1" fill="#dd9aea" d="M 145.5,340.5 C 143.967,342.245 141.967,343.245 139.5,343.5C 141.033,341.755 143.033,340.755 145.5,340.5 Z"/></g>
<g><path style="opacity:1" fill="#d799e4" d="M 136.5,345.5 C 136.027,346.906 135.027,347.573 133.5,347.5C 133.973,346.094 134.973,345.427 136.5,345.5 Z"/></g>
<g><path style="opacity:0.004" fill="#fefffe" d="M 420.5,346.5 C 420.5,346.833 420.5,347.167 420.5,347.5C 419.83,347.019 419.83,346.685 420.5,346.5 Z"/></g>
<g><path style="opacity:0.004" fill="#fefffe" d="M 420.5,348.5 C 420.5,348.833 420.5,349.167 420.5,349.5C 419.83,349.019 419.83,348.685 420.5,348.5 Z"/></g>
<g><path style="opacity:1" fill="#e7b1f2" d="M 133.5,347.5 C 132.514,349.408 130.848,350.408 128.5,350.5C 129.659,348.75 131.326,347.75 133.5,347.5 Z"/></g>
<g><path style="opacity:0.004" fill="#fefffe" d="M 420.5,350.5 C 420.5,351.167 420.5,351.833 420.5,352.5C 419.167,351.833 419.167,351.167 420.5,350.5 Z"/></g>
<g><path style="opacity:1" fill="#edc3f3" d="M 128.5,350.5 C 126.262,352.388 123.929,354.388 121.5,356.5C 119.955,357.452 118.288,357.785 116.5,357.5C 120.164,354.665 124.164,352.332 128.5,350.5 Z"/></g>
<g><path style="opacity:0.004" fill="#fefffe" d="M 40.5,356.5 C 39.475,356.103 39.3083,355.437 40,354.5C 40.4643,355.094 40.631,355.761 40.5,356.5 Z"/></g>
<g><path style="opacity:1" fill="#a72cd5" d="M 106.5,295.5 C 103.529,297.968 100.529,300.301 97.5,302.5C 92.3744,304.276 87.7078,306.943 83.5,310.5C 83.1667,312 82.8333,313.5 82.5,315C 85.2156,333.176 87.8823,351.343 90.5,369.5C 93.0037,368.361 95.6703,367.694 98.5,367.5C 96.3428,369.412 94.0094,371.079 91.5,372.5C 89.5891,372.426 88.4224,371.426 88,369.5C 87.2299,362.293 86.0632,355.293 84.5,348.5C 84.4848,342.383 83.8182,336.383 82.5,330.5C 81.8333,323.5 81.1667,316.5 80.5,309.5C 80.4142,308.504 80.7476,307.671 81.5,307C 83.8516,306.76 85.8516,305.927 87.5,304.5C 89.4341,303.89 91.1007,302.89 92.5,301.5C 94.8477,301.408 96.5144,300.408 97.5,298.5C 100.682,297.97 103.682,296.97 106.5,295.5 Z"/></g>
<g><path style="opacity:0.004" fill="#fefffe" d="M 420.5,357.5 C 420.5,357.833 420.5,358.167 420.5,358.5C 419.83,358.019 419.83,357.685 420.5,357.5 Z"/></g>
<g><path style="opacity:1" fill="#e5a7f0" d="M 116.5,357.5 C 115.514,359.408 113.848,360.408 111.5,360.5C 112.659,358.75 114.326,357.75 116.5,357.5 Z"/></g>
<g><path style="opacity:0.004" fill="#fefffe" d="M 418.5,359.5 C 419.833,360.167 419.833,360.167 418.5,359.5 Z"/></g>
<g><path style="opacity:0.004" fill="#fefffe" d="M 42.5,360.5 C 42.5,360.833 42.5,361.167 42.5,361.5C 41.8333,361.5 41.5,361.833 41.5,362.5C 40.2426,361.377 40.5759,360.711 42.5,360.5 Z"/></g>
<g><path style="opacity:0.004" fill="#fefffe" d="M 418.5,362.5 C 419.525,362.897 419.692,363.563 419,364.5C 418.536,363.906 418.369,363.239 418.5,362.5 Z"/></g>
<g><path style="opacity:0.004" fill="#000000" d="M 416.5,364.5 C 417.833,365.167 417.833,365.167 416.5,364.5 Z"/></g>
<g><path style="opacity:1" fill="#fbe8fc" d="M 84.5,348.5 C 86.0632,355.293 87.2299,362.293 88,369.5C 88.4224,371.426 89.5891,372.426 91.5,372.5C 91.5,373.5 91.5,374.5 91.5,375.5C 89.3352,375.884 87.6685,375.217 86.5,373.5C 85.8286,370.663 85.8286,367.663 86.5,364.5C 86.1543,363.304 85.6543,363.304 85,364.5C 84.3744,362.287 84.5411,360.12 85.5,358C 84.2061,357.894 83.5394,356.894 83.5,355C 84.0767,352.863 84.41,350.696 84.5,348.5 Z"/></g>
<g><path style="opacity:0.004" fill="#fefffe" d="M 417.5,366.5 C 418.833,367.167 418.833,367.167 417.5,366.5 Z"/></g>
<g><path style="opacity:0.012" fill="#808080" d="M 43.5,365.5 C 45.7813,367.032 45.7813,368.366 43.5,369.5C 43.4226,368.25 42.756,367.417 41.5,367C 42.0442,366.283 42.7109,365.783 43.5,365.5 Z"/></g>
<g><path style="opacity:0.004" fill="#a2a2a2" d="M 414.5,367.5 C 415.239,367.369 415.906,367.536 416.5,368C 415.563,368.692 414.897,368.525 414.5,367.5 Z"/></g>
<g><path style="opacity:0.004" fill="#fefffe" d="M 414.5,369.5 C 415.289,369.783 415.956,370.283 416.5,371C 415.184,371.528 414.517,371.028 414.5,369.5 Z"/></g>
<g><path style="opacity:0.004" fill="#fefffe" d="M 414.5,373.5 C 415.833,374.167 415.833,374.167 414.5,373.5 Z"/></g>
<g><path style="opacity:0.004" fill="#fefffe" d="M 413.5,375.5 C 414.833,376.167 414.833,376.167 413.5,375.5 Z"/></g>
<g><path style="opacity:0.004" fill="#b8b8b8" d="M 410.5,376.5 C 412.028,376.517 412.528,377.184 412,378.5C 411.283,377.956 410.783,377.289 410.5,376.5 Z"/></g>
<g><path style="opacity:0.004" fill="#fefffe" d="M 409.5,378.5 C 410.833,379.167 410.833,379.167 409.5,378.5 Z"/></g>
<g><path style="opacity:0.004" fill="#fefffe" d="M 44.5,381.5 C 43.8333,380.167 43.8333,380.167 44.5,381.5 Z"/></g>
<g><path style="opacity:0.004" fill="#fefffe" d="M 409.5,380.5 C 410.833,381.167 410.833,381.167 409.5,380.5 Z"/></g>
<g><path style="opacity:0.004" fill="#8f8f8f" d="M 404.5,382.5 C 404.5,383.167 404.833,383.5 405.5,383.5C 405.5,383.833 405.5,384.167 405.5,384.5C 404.732,385.263 404.232,386.263 404,387.5C 403.79,385.942 403.29,384.609 402.5,383.5C 402.711,381.576 403.377,381.243 404.5,382.5 Z"/></g>
<g><path style="opacity:0.004" fill="#fefffe" d="M 405.5,382.5 C 406.833,383.167 406.833,383.167 405.5,382.5 Z"/></g>
<g><path style="opacity:0.004" fill="#fefffe" d="M 405.5,384.5 C 406.833,385.167 406.833,385.167 405.5,384.5 Z"/></g>
<g><path style="opacity:0.004" fill="#fefffe" d="M 401.5,387.5 C 402.525,387.897 402.692,388.563 402,389.5C 401.536,388.906 401.369,388.239 401.5,387.5 Z"/></g>
<g><path style="opacity:0.004" fill="#fefffe" d="M 394.5,389.5 C 394.5,389.833 394.5,390.167 394.5,390.5C 390.757,390.541 390.59,389.874 394,388.5C 394.399,388.728 394.565,389.062 394.5,389.5 Z"/></g>
<g><path style="opacity:0.004" fill="#fefffe" d="M 399.5,388.5 C 400.525,388.897 400.692,389.563 400,390.5C 399.536,389.906 399.369,389.239 399.5,388.5 Z"/></g>
<g><path style="opacity:0.004" fill="#fefffe" d="M 392.5,393.5 C 392.103,394.525 391.437,394.692 390.5,394C 391.094,393.536 391.761,393.369 392.5,393.5 Z"/></g>
<g><path style="opacity:0.004" fill="#fefffe" d="M 387.5,395.5 C 388.833,396.167 388.833,396.167 387.5,395.5 Z"/></g>
<g><path style="opacity:0.004" fill="#fefffe" d="M 368.5,397.5 C 368.158,398.338 367.492,398.672 366.5,398.5C 366.409,396.302 367.075,395.969 368.5,397.5 Z"/></g>
<g><path style="opacity:0.004" fill="#fefffe" d="M 376.5,396.5 C 376.833,396.5 377.167,396.5 377.5,396.5C 377.631,397.376 377.298,398.043 376.5,398.5C 375.537,398.03 375.537,397.363 376.5,396.5 Z"/></g>
<g><path style="opacity:0.004" fill="#fefffe" d="M 379.5,396.5 C 380.833,397.167 380.833,397.167 379.5,396.5 Z"/></g>
<g><path style="opacity:0.004" fill="#fefffe" d="M 370.5,398.5 C 369.833,399.167 369.833,399.167 370.5,398.5 Z"/></g>
<g><path style="opacity:0.004" fill="#bababa" d="M 356.5,399.5 C 357.504,401.677 356.838,402.011 354.5,400.5C 354.409,398.302 355.075,397.969 356.5,399.5 Z"/></g>
<g><path style="opacity:0.004" fill="#000000" d="M 341.5,402.5 C 342.833,403.167 342.833,403.167 341.5,402.5 Z"/></g>
<g><path style="opacity:0.004" fill="#fefffe" d="M 48.5,403.5 C 47.8333,404.167 47.8333,404.167 48.5,403.5 Z"/></g>
<g><path style="opacity:0.016" fill="#7e7e7e" d="M 312.5,406.5 C 311.609,407.11 310.609,407.443 309.5,407.5C 309.5,407.167 309.5,406.833 309.5,406.5C 309.807,403.038 310.807,403.038 312.5,406.5 Z"/></g>
<g><path style="opacity:0.004" fill="#fefffe" d="M 47.5,405.5 C 48.8333,406.167 48.8333,406.167 47.5,405.5 Z"/></g>
<g><path style="opacity:0.004" fill="#fefffe" d="M 48.5,407.5 C 49.8333,408.167 49.8333,408.167 48.5,407.5 Z"/></g>
<g><path style="opacity:0.004" fill="#fefffe" d="M 308.5,407.5 C 308.833,407.5 309.167,407.5 309.5,407.5C 309.315,408.17 308.981,408.17 308.5,407.5 Z"/></g>
<g><path style="opacity:0.004" fill="#fefffe" d="M 305.5,408.5 C 305.833,408.5 306.167,408.5 306.5,408.5C 306.315,409.17 305.981,409.17 305.5,408.5 Z"/></g>
<g><path style="opacity:0.004" fill="#fefffe" d="M 49.5,409.5 C 50.8333,410.167 50.8333,410.167 49.5,409.5 Z"/></g>
<g><path style="opacity:0.004" fill="#fefffe" d="M 291.5,410.5 C 292.833,411.167 292.833,411.167 291.5,410.5 Z"/></g>
<g><path style="opacity:0.004" fill="#fefffe" d="M 275.5,413.5 C 274.508,413.672 273.842,413.338 273.5,412.5C 274.925,410.969 275.591,411.302 275.5,413.5 Z"/></g>
<g><path style="opacity:0.004" fill="#fefffe" d="M 286.5,411.5 C 287.833,412.167 287.833,412.167 286.5,411.5 Z"/></g>
<g><path style="opacity:0.004" fill="#000000" d="M 51.5,412.5 C 50.8333,413.167 50.8333,413.167 51.5,412.5 Z"/></g>
<g><path style="opacity:0.02" fill="#464646" d="M 253.5,415.5 C 253.279,418.097 252.779,418.097 252,415.5C 250.989,416.337 249.822,416.67 248.5,416.5C 248.389,415.883 248.056,415.383 247.5,415C 249.536,414.546 251.37,413.713 253,412.5C 254.683,413.176 254.85,414.176 253.5,415.5 Z"/></g>
<g><path style="opacity:0.004" fill="#fefffe" d="M 279.5,412.5 C 280.833,413.167 280.833,413.167 279.5,412.5 Z"/></g>
<g><path style="opacity:0.004" fill="#b8b8b8" d="M 263.5,413.5 C 264.167,413.5 264.5,413.833 264.5,414.5C 263.833,415.833 263.167,415.833 262.5,414.5C 262.5,413.833 262.833,413.5 263.5,413.5 Z"/></g>
<g><path style="opacity:0.004" fill="#fefffe" d="M 50.5,414.5 C 51.8333,415.167 51.8333,415.167 50.5,414.5 Z"/></g>
<g><path style="opacity:0.004" fill="#fefffe" d="M 266.5,414.5 C 267.833,415.167 267.833,415.167 266.5,414.5 Z"/></g>
<g><path style="opacity:0.004" fill="#d7d7d7" d="M 258.5,415.5 C 258.715,416.734 258.048,416.734 256.5,415.5C 256.369,414.761 256.536,414.094 257,413.5C 257.278,414.416 257.778,415.082 258.5,415.5 Z"/></g>
<g><path style="opacity:0.004" fill="#fefffe" d="M 52.5,416.5 C 53.8333,417.167 53.8333,417.167 52.5,416.5 Z"/></g>
<g><path style="opacity:0.004" fill="#fefffe" d="M 53.5,419.5 C 52.8333,418.167 52.8333,418.167 53.5,419.5 Z"/></g>
<g><path style="opacity:0.004" fill="#fefffe" d="M 53.5,419.5 C 54.4916,419.328 55.1583,419.662 55.5,420.5C 54.5084,420.672 53.8417,420.338 53.5,419.5 Z"/></g>
<g><path style="opacity:0.004" fill="#dddddd" d="M 220.5,420.5 C 221.623,419.243 222.289,419.576 222.5,421.5C 222.167,421.5 221.833,421.5 221.5,421.5C 221.5,420.833 221.167,420.5 220.5,420.5 Z"/></g>
<g><path style="opacity:0.004" fill="#fefffe" d="M 226.5,420.5 C 227.833,421.167 227.833,421.167 226.5,420.5 Z"/></g>
<g><path style="opacity:0.004" fill="#4e4e4e" d="M 55.5,420.5 C 56.525,420.897 56.6917,421.563 56,422.5C 55.5357,421.906 55.369,421.239 55.5,420.5 Z"/></g>
<g><path style="opacity:0.004" fill="#000000" d="M 221.5,421.5 C 220.833,422.167 220.833,422.167 221.5,421.5 Z"/></g>
<g><path style="opacity:0.004" fill="#a2a2a2" d="M 57.5,423.5 C 58.525,423.897 58.6917,424.563 58,425.5C 57.5357,424.906 57.369,424.239 57.5,423.5 Z"/></g>
<g><path style="opacity:0.004" fill="#dddddd" d="M 187.5,426.5 C 186.833,426.5 186.167,426.5 185.5,426.5C 185.786,424.067 186.452,424.067 187.5,426.5 Z"/></g>
<g><path style="opacity:0.004" fill="#fefffe" d="M 63.5,426.5 C 63.5,427.167 63.5,427.833 63.5,428.5C 61.0673,428.214 61.0673,427.548 63.5,426.5 Z"/></g>
<g><path style="opacity:0.004" fill="#fefffe" d="M 189.5,426.5 C 190.833,427.167 190.833,427.167 189.5,426.5 Z"/></g>
<g><path style="opacity:0.004" fill="#fefffe" d="M 179.5,427.5 C 180.833,428.167 180.833,428.167 179.5,427.5 Z"/></g>
<g><path style="opacity:0.004" fill="#c0c0c0" d="M 70.5,431.5 C 70.6716,432.492 70.3382,433.158 69.5,433.5C 69.6716,432.508 69.3382,431.842 68.5,431.5C 68.5,430.833 68.1667,430.5 67.5,430.5C 68.8596,428.019 69.8596,428.352 70.5,431.5 Z"/></g>
<g><path style="opacity:0.004" fill="#fefffe" d="M 161.5,429.5 C 161.631,430.239 161.464,430.906 161,431.5C 160.329,430.748 159.496,430.414 158.5,430.5C 159.172,429.733 160.005,429.066 161,428.5C 161.399,428.728 161.565,429.062 161.5,429.5 Z"/></g>
<g><path style="opacity:0.004" fill="#fefffe" d="M 175.5,428.5 C 174.833,429.167 174.833,429.167 175.5,428.5 Z"/></g>
<g><path style="opacity:0.004" fill="#fefffe" d="M 62.5,430.5 C 62.8966,429.475 63.5632,429.308 64.5,430C 63.9056,430.464 63.2389,430.631 62.5,430.5 Z"/></g>
<g><path style="opacity:0.004" fill="#000000" d="M 169.5,429.5 C 170.833,430.167 170.833,430.167 169.5,429.5 Z"/></g>
<g><path style="opacity:0.004" fill="#fefffe" d="M 66.5,430.5 C 66.8333,430.5 67.1667,430.5 67.5,430.5C 68.1667,430.5 68.5,430.833 68.5,431.5C 68.3284,432.492 68.6618,433.158 69.5,433.5C 69.44,434.043 69.1067,434.376 68.5,434.5C 67.2949,433.423 66.6282,432.09 66.5,430.5 Z"/></g>
<g><path style="opacity:0.004" fill="#fefffe" d="M 163.5,430.5 C 162.833,431.167 162.833,431.167 163.5,430.5 Z"/></g>
<g><path style="opacity:0.004" fill="#fefffe" d="M 63.5,432.5 C 63.8966,431.475 64.5632,431.308 65.5,432C 64.9056,432.464 64.2389,432.631 63.5,432.5 Z"/></g>
<g><path style="opacity:0.007" fill="#555555" d="M 79.5,436.5 C 78.8826,436.611 78.3826,436.944 78,437.5C 76.794,434.699 74.9607,433.699 72.5,434.5C 72.4431,433.391 72.1098,432.391 71.5,431.5C 73.2624,431.643 74.9291,431.309 76.5,430.5C 78.019,431.851 79.3523,433.351 80.5,435C 79.944,435.383 79.6107,435.883 79.5,436.5 Z"/></g>
<g><path style="opacity:0.004" fill="#4e4e4e" d="M 154.5,431.5 C 155.239,431.369 155.906,431.536 156.5,432C 155.563,432.692 154.897,432.525 154.5,431.5 Z"/></g>
<g><path style="opacity:0.004" fill="#fefffe" d="M 72.5,434.5 C 72.4891,437.001 71.8224,437.168 70.5,435C 71.0944,434.536 71.7611,434.369 72.5,434.5 Z"/></g>
<g><path style="opacity:0.004" fill="#fefffe" d="M 74.5,435.5 C 75.8333,436.167 75.8333,436.167 74.5,435.5 Z"/></g>
<g><path style="opacity:0.02" fill="#686868" d="M 101.5,438.5 C 101.631,439.239 101.464,439.906 101,440.5C 99.8873,439.695 98.7206,439.028 97.5,438.5C 99.374,434.835 100.707,434.835 101.5,438.5 Z"/></g>
<g><path style="opacity:0.004" fill="#fefffe" d="M 130.5,435.5 C 131.833,436.167 131.833,436.167 130.5,435.5 Z"/></g>
<g><path style="opacity:0.004" fill="#fefffe" d="M 124.5,436.5 C 125.833,437.167 125.833,437.167 124.5,436.5 Z"/></g>
<g><path style="opacity:0.008" fill="#949494" d="M 104.5,438.5 C 103.778,438.918 103.278,439.584 103,440.5C 102.536,439.906 102.369,439.239 102.5,438.5C 103.167,437.167 103.833,437.167 104.5,438.5 Z"/></g>
<g><path style="opacity:0.004" fill="#fefffe" d="M 76.5,438.5 C 77.8333,439.167 77.8333,439.167 76.5,438.5 Z"/></g>
<g><path style="opacity:0.004" fill="#000000" d="M 78.5,438.5 C 79.8333,439.167 79.8333,439.167 78.5,438.5 Z"/></g>
<g><path style="opacity:0.004" fill="#fefffe" d="M 97.5,441.5 C 96.8333,440.167 96.8333,440.167 97.5,441.5 Z"/></g>
<g><path style="opacity:0.004" fill="#fefffe" d="M 99.5,441.5 C 98.8333,440.167 98.8333,440.167 99.5,441.5 Z"/></g>
</svg>
