<!-- icon666.com - MILLIONS OF FREE VECTOR ICONS --><svg id="Capa_1" enable-background="new 0 0 512 512" viewBox="0 0 512 512" xmlns="http://www.w3.org/2000/svg"><g><path d="m298.43 30c-6.191-17.461-22.874-30-42.43-30s-36.239 12.539-42.43 30h-137.57c-8.284 0-15 6.716-15 15v452c0 8.284 6.716 15 15 15h360c8.284 0 15-6.716 15-15v-452c0-8.284-6.716-15-15-15zm-117.43 30h45c8.284 0 15-6.716 15-15 0-8.271 6.729-15 15-15s15 6.729 15 15c0 8.284 6.716 15 15 15h45v30h-150zm240 422h-330v-422h60v45c0 8.284 6.716 15 15 15h180c8.284 0 15-6.716 15-15v-45h60z"></path><path d="m256.625 182.25c-66.168 0-120 53.832-120 120s53.832 120 120 120 120-53.832 120-120-53.832-120-120-120zm0 210c-49.626 0-90-40.374-90-90s40.374-90 90-90 90 40.374 90 90-40.374 90-90 90z"></path><path d="m291.019 261.643-49.394 49.394-19.394-19.394c-5.857-5.858-15.355-5.858-21.213 0s-5.858 15.355 0 21.213l30 30c2.929 2.929 6.768 4.393 10.606 4.393s7.678-1.464 10.606-4.393l60-60c5.858-5.858 5.858-15.355 0-21.213-5.856-5.858-15.354-5.858-21.211 0z"></path></g></svg>