<!-- icon666.com - MILLIONS OF FREE VECTOR ICONS --><svg id="Layer_1" enable-background="new 0 0 128 128" viewBox="0 0 128 128" xmlns="http://www.w3.org/2000/svg"><g><path d="m48.636 43.943h15.364v4h-15.364z"></path><path d="m48.636 62h30.728v4h-30.728z"></path><path d="m48.636 80.085h30.728v4h-30.728z"></path><path d="m81.854 13.01h-49.857c-6.062 0-10.994 4.932-10.994 10.993v79.994c0 6.077 4.932 11.021 10.994 11.021h64.006c6.062 0 10.994-4.944 10.994-11.021v-65.844zm.757 9.242 15.144 15.144h-15.144zm13.392 86.767h-64.006c-2.754 0-4.994-2.253-4.994-5.021v-79.995c0-2.753 2.24-4.993 4.994-4.993h46.614v22.386h22.386v62.602c0 2.768-2.24 5.021-4.994 5.021z"></path></g></svg>